<?xml version="1.0" standalone="no"?>
<!DOCTYPE svg PUBLIC "-//W3C//DTD SVG 20010904//EN"
 "http://www.w3.org/TR/2001/REC-SVG-20010904/DTD/svg10.dtd">
<svg version="1.0" xmlns="http://www.w3.org/2000/svg"
 width="1080.000000pt" height="1080.000000pt" viewBox="0 0 1080.000000 1080.000000"
 preserveAspectRatio="xMidYMid meet">
<metadata>
Created by potrace 1.11, written by Peter Selinger 2001-2013
</metadata>
<g transform="translate(0.000000,1080.000000) scale(0.100000,-0.100000)"
fill="#000000" stroke="none">
<path d="M0 5400 l0 -5400 5400 0 5400 0 0 5400 0 5400 -5400 0 -5400 0 0
-5400z m5218 4300 c39 0 57 -13 30 -23 -7 -2 0 -2 15 1 40 6 97 -7 94 -21 -1
-7 -16 -17 -33 -24 -25 -9 -41 -8 -78 4 -25 8 -44 19 -41 23 6 9 -29 20 -67
20 -14 0 -29 6 -31 13 -4 9 -8 9 -14 1 -12 -17 -52 -27 -103 -27 -25 0 -34 -2
-20 -4 14 -3 30 -9 37 -14 7 -6 12 -6 15 1 5 15 160 19 165 4 2 -6 -13 -17
-34 -25 -32 -13 -44 -13 -78 -1 -34 11 -45 11 -83 -4 -32 -12 -58 -14 -98 -9
-63 8 -63 17 0 35 39 11 43 14 31 27 -8 8 -15 17 -15 19 0 3 39 3 88 0 61 -4
80 -3 62 4 -18 7 -7 8 45 5 39 -3 89 -5 113 -5z m502 3 c0 -5 34 -9 76 -10 50
-1 79 -6 85 -14 6 -10 11 -10 21 -1 8 6 23 9 34 7 10 -2 40 -7 66 -10 33 -4
45 -10 42 -19 -4 -9 8 -15 38 -19 23 -3 44 -11 46 -16 4 -13 32 -15 32 -2 0 4
-20 14 -45 21 -25 7 -48 17 -52 23 -4 6 3 8 18 3 13 -3 47 -11 74 -17 28 -7
52 -15 55 -18 3 -4 24 -13 48 -21 51 -16 59 -43 10 -33 -18 3 -41 10 -50 14
-23 12 -37 11 -15 -2 27 -16 20 -36 -14 -43 -23 -4 -42 1 -75 20 -49 29 -55
41 -21 47 21 4 21 4 -3 6 -14 0 -43 6 -65 12 -34 10 -37 13 -20 20 17 7 16 8
-7 8 -16 1 -28 -3 -28 -9 0 -5 -14 -10 -31 -10 -39 0 -109 20 -109 32 0 4 -7
8 -16 8 -9 0 -12 -5 -8 -12 10 -16 -132 -3 -160 16 -12 8 -33 16 -47 19 -13 2
9 5 49 6 39 0 72 -2 72 -6z m-820 -27 c0 -19 -14 -23 -96 -30 -65 -6 -67 -5
-39 9 17 8 44 14 60 15 23 0 27 3 15 10 -11 7 -5 10 23 10 25 0 37 -4 37 -14z
m-152 -13 c-10 -2 -26 -2 -35 0 -10 3 -2 5 17 5 19 0 27 -2 18 -5z m-81 -9
c-3 -3 -12 -4 -19 -1 -8 3 -5 6 6 6 11 1 17 -2 13 -5z m-77 -19 c-19 -7 -42
-14 -49 -14 -24 -1 1 17 29 22 47 8 55 5 20 -8z m124 -6 c-28 -10 -160 -23
-153 -15 11 11 133 33 153 28 19 -5 19 -5 0 -13z m1173 6 c2 -6 25 -8 53 -7
92 7 168 -40 83 -51 -28 -3 -49 2 -76 18 -33 19 -44 21 -78 12 -31 -7 -49 -6
-84 8 -25 9 -45 21 -45 27 0 13 142 6 147 -7z m-614 -42 c3 -17 -3 -27 -29
-42 -31 -19 -35 -19 -76 -4 -83 32 -83 46 0 74 56 19 98 8 105 -28z m151 38
c12 -4 20 -18 20 -33 1 -20 -6 -30 -31 -42 -30 -14 -36 -14 -83 6 -28 11 -49
26 -47 32 4 12 83 45 107 45 8 0 24 -4 34 -8z m-900 -15 c24 -12 25 -14 9 -21
-25 -11 -123 -23 -123 -15 0 3 24 12 53 20 46 12 49 14 27 21 -14 4 -18 7 -9
8 9 1 29 -5 43 -13z m303 -2 c6 -19 -54 -37 -103 -30 -37 5 -52 2 -74 -14 -29
-21 -112 -28 -138 -11 -20 13 63 43 112 40 23 -1 52 3 66 8 14 6 32 13 40 16
24 9 93 3 97 -9z m1128 -35 c31 -18 41 -20 76 -11 35 9 46 7 72 -8 41 -25 43
-56 3 -70 -27 -9 -35 -7 -76 22 -25 17 -49 37 -53 42 -6 7 -7 4 -3 -6 4 -12
-4 -20 -29 -28 -31 -10 -40 -8 -85 16 -54 29 -59 44 -19 55 45 13 78 9 114
-12z m-452 -25 c26 -12 34 -22 34 -43 0 -22 -8 -30 -43 -45 -42 -17 -42 -17
-83 8 -23 15 -41 30 -41 34 0 7 85 60 97 62 1 0 17 -7 36 -16z m-172 -5 c32
-10 37 -16 36 -38 -2 -19 -12 -32 -42 -48 -37 -19 -43 -20 -74 -7 -72 30 -72
47 -2 84 44 23 36 22 82 9z m-170 -11 c31 -9 37 -14 28 -24 -6 -8 -9 -20 -6
-28 4 -9 -8 -20 -33 -31 -38 -17 -39 -17 -81 6 -24 13 -43 29 -43 34 1 10 72
55 88 55 5 0 26 -5 47 -12z m-576 -23 c0 -31 -43 -62 -82 -59 -15 1 -38 2 -50
3 -62 3 26 80 92 81 37 0 41 -2 40 -25z m1438 -17 c30 -19 32 -24 23 -45 -7
-15 -25 -27 -50 -34 -34 -9 -42 -8 -77 17 -22 15 -38 32 -36 37 2 8 58 33 105
46 1 1 17 -9 35 -21z m687 14 c0 -5 27 -16 60 -26 33 -10 60 -22 60 -27 0 -10
-43 -2 -72 12 -25 13 -32 11 -18 -6 19 -23 -21 -20 -73 5 l-42 21 28 -21 c40
-32 31 -60 -19 -60 -20 0 -95 61 -88 71 3 5 21 9 40 9 23 0 33 4 28 11 -4 7 0
9 12 6 62 -19 74 -19 68 -3 -3 9 -1 16 5 16 6 0 11 -4 11 -8z m-2038 -38 c4
-3 5 -11 2 -18 -3 -8 0 -17 6 -21 7 -5 -2 -16 -25 -32 -32 -22 -41 -24 -62
-14 -14 7 -28 9 -31 7 -7 -7 -42 13 -42 24 0 5 19 23 43 39 32 24 49 29 72 25
17 -4 33 -8 37 -10z m934 -40 c-3 -9 -6 -19 -6 -24 0 -5 -16 -14 -35 -20 -29
-10 -43 -9 -80 5 -24 10 -42 22 -39 27 4 6 29 21 57 33 47 22 52 23 79 9 20
-10 28 -21 24 -30z m-192 21 c36 -24 23 -51 -33 -70 -43 -14 -51 -14 -85 0
-20 9 -34 20 -31 25 8 13 96 59 113 60 7 0 23 -7 36 -15z m-341 -14 c19 -12
25 -21 17 -26 -6 -4 -9 -13 -7 -20 5 -12 -51 -35 -86 -35 -21 0 -67 21 -67 31
0 7 98 68 110 69 3 0 18 -9 33 -19z m-578 1 c30 -10 25 -44 -10 -64 -23 -12
-41 -14 -73 -8 -24 4 -45 10 -48 13 -8 7 78 66 96 66 8 -1 24 -4 35 -7z m1417
-23 c26 -19 28 -23 14 -31 -9 -5 -16 -16 -16 -25 0 -13 -8 -14 -41 -9 -41 7
-89 32 -89 47 0 6 64 31 98 38 2 1 17 -9 34 -20z m883 4 c44 -21 46 -43 4 -43
-30 0 -109 38 -109 53 0 13 69 7 105 -10z m-2460 -23 c7 0 15 -9 18 -21 8 -28
-38 -68 -78 -69 -39 0 -75 10 -75 21 0 15 94 80 108 74 7 -3 19 -5 27 -5z
m2380 -4 c31 -23 28 -50 -7 -64 -28 -10 -35 -9 -65 14 -39 30 -38 46 3 55 45
10 49 10 69 -5z m-2146 -17 c22 -8 31 -17 31 -34 0 -20 -6 -23 -65 -28 -77 -7
-101 -2 -83 20 9 11 56 40 84 53 1 0 15 -5 33 -11z m916 -2 c22 -17 15 -21
-50 -35 -30 -7 -64 -8 -85 -3 l-35 8 65 21 c79 25 81 26 105 9z m1583 3 c39
-21 170 -79 205 -90 40 -12 51 -31 15 -24 -21 4 -20 3 2 -6 14 -6 36 -13 50
-15 32 -4 100 -36 100 -47 0 -14 -14 -9 -55 19 -37 25 -39 25 -20 3 l20 -23
-30 7 c-36 9 -108 54 -101 64 2 4 -13 15 -33 24 -29 15 -32 15 -13 2 33 -24
27 -34 -14 -21 -20 6 -55 28 -78 50 -23 21 -50 44 -61 52 -23 16 -14 20 13 5z
m-1758 -30 c0 -12 -103 -32 -126 -24 -10 4 -22 12 -26 18 -6 8 -10 8 -15 0
-11 -16 -95 -26 -124 -16 -22 9 -19 11 34 28 47 14 64 16 90 7 25 -9 44 -9 82
1 49 13 85 7 85 -14z m-1491 -36 c-23 -22 -32 -25 -90 -22 l-64 3 38 29 c46
35 105 49 127 29 13 -11 11 -16 -11 -39z m616 11 c0 -13 -3 -22 -6 -20 -3 2
-24 -7 -48 -21 -43 -24 -91 -32 -91 -15 0 5 20 27 45 48 34 31 50 39 72 36 21
-4 28 -10 28 -28z m-512 8 c-3 -7 2 -16 12 -19 27 -11 -30 -64 -69 -65 -30 0
-30 -1 -8 -11 12 -6 22 -17 22 -25 0 -7 6 -13 13 -13 6 0 1 -9 -13 -19 -13
-11 -27 -18 -30 -16 -3 1 -14 -2 -25 -6 -18 -9 -18 -9 3 -5 14 3 22 0 19 -7
-4 -13 -97 -11 -110 2 -8 8 32 51 78 85 20 15 20 15 -2 16 -32 0 -29 10 15 58
31 33 45 41 69 39 19 -1 29 -6 26 -14z m2715 5 c6 -7 8 -25 5 -40 -4 -20 -12
-27 -36 -31 -26 -4 -37 1 -59 27 -15 17 -27 34 -28 38 -1 18 103 23 118 6z
m-695 -11 c4 -11 -8 -14 -54 -13 -71 1 -78 13 -11 19 26 2 50 4 53 5 4 1 9 -4
12 -11z m-574 -13 c2 -2 -20 -4 -50 -3 -38 0 -48 3 -34 9 18 7 73 3 84 -6z
m161 1 c30 -17 24 -19 -17 -5 -19 7 -44 8 -71 1 -23 -5 -42 -5 -42 -1 0 21 97
24 130 5z m1254 -13 c23 -25 25 -30 11 -42 -8 -7 -13 -16 -10 -20 3 -5 -14
-11 -37 -15 -39 -7 -43 -5 -70 26 -15 19 -26 38 -24 44 2 9 65 32 92 34 5 1
23 -12 38 -27z m-2122 8 c15 0 4 -23 -13 -26 -7 -1 -34 -9 -58 -18 -49 -18
-61 -20 -61 -8 0 13 93 62 108 57 8 -3 18 -5 24 -5z m508 -1 c24 -8 24 -9 -3
-5 -16 2 -45 0 -64 -4 -20 -5 -32 -5 -27 0 19 18 59 22 94 9z m534 -9 c8 -9 5
-10 -14 -4 -31 10 -55 10 -100 1 -36 -8 -32 7 5 16 30 8 96 0 109 -13z m-669
-1 c15 -7 11 -8 -16 -4 -38 6 -106 -13 -92 -25 4 -5 17 -10 28 -13 16 -4 14
-5 -6 -6 -17 -1 -29 5 -33 15 -8 20 -7 20 24 33 31 12 69 12 95 0z m804 0 c17
-6 31 -15 31 -19 0 -5 -16 -2 -35 6 -27 11 -45 12 -70 5 -19 -5 -35 -6 -35 -1
0 8 14 11 66 19 6 0 25 -4 43 -10z m704 -47 c-6 -25 -4 -25 -88 -8 -72 14 -69
37 6 52 46 9 57 8 71 -5 12 -11 15 -24 11 -39z m-2289 42 c34 -13 17 -40 -36
-58 -29 -9 -59 -20 -65 -23 -23 -9 -14 15 18 52 30 34 51 41 83 29z m636 -13
c0 -5 -19 -8 -42 -8 -24 0 -54 -3 -68 -7 -24 -7 -24 -7 -6 8 21 17 116 23 116
7z m1114 -6 c32 -14 35 -18 26 -36 -7 -12 -18 -18 -28 -15 -9 3 -38 8 -64 12
-37 5 -48 10 -48 24 0 31 58 38 114 15z m-2222 -20 c6 -31 -26 -62 -67 -66
-48 -3 -75 0 -75 10 0 20 52 70 78 74 55 8 60 7 64 -18z m964 -11 c3 -19 -4
-22 -63 -32 -66 -11 -82 -7 -83 21 0 15 65 37 104 34 31 -2 40 -6 42 -23z
m2504 -2 c19 -9 37 -25 38 -35 6 -31 -57 -11 -98 30 l-35 35 30 -6 c17 -4 46
-15 65 -24z m-2385 -4 c-59 -10 -95 -9 -95 3 0 5 3 8 8 6 4 -2 30 -1 57 2 61
9 86 -1 30 -11z m988 15 c-7 -2 -21 -2 -30 0 -10 3 -4 5 12 5 17 0 24 -2 18
-5z m296 -4 c33 -12 36 -16 22 -37 -6 -11 -20 -11 -66 -3 -32 6 -60 11 -61 11
-1 0 0 9 3 20 6 23 50 27 102 9z m524 -12 c21 -32 1 -57 -46 -57 -28 0 -40 6
-56 29 -27 37 -26 39 7 44 64 10 80 7 95 -16z m-2566 7 c38 -10 11 -39 -52
-54 -36 -9 -51 -16 -43 -22 9 -5 6 -8 -9 -8 -31 0 -29 8 14 52 37 38 50 43 90
32z m3083 -29 c26 -27 42 -35 70 -35 75 0 106 -84 35 -92 -30 -3 -37 0 -60 35
-14 21 -25 45 -25 53 0 8 -5 14 -11 14 -6 0 -9 -6 -6 -14 4 -10 -5 -15 -30
-18 -30 -4 -39 1 -69 36 -19 22 -34 43 -34 48 0 4 22 8 48 8 42 0 53 -5 82
-35z m-2610 15 c0 -5 -17 -10 -38 -10 -21 0 -48 -7 -60 -16 -13 -9 -25 -14
-28 -11 -3 2 10 14 28 26 34 21 98 29 98 11z m1843 -5 c-4 -17 -66 -17 -103
-1 l-35 16 70 -3 c40 -1 69 -6 68 -12z m-130 -6 c17 -8 23 -17 20 -30 -6 -22
-14 -23 -82 -7 -44 10 -49 13 -40 30 11 21 64 25 102 7z m-1698 -19 c3 -5 -1
-10 -10 -10 -9 0 -13 5 -10 10 3 6 8 10 10 10 2 0 7 -4 10 -10z m1964 -4 c17
-20 -2 -28 -35 -16 -16 6 -40 8 -54 5 -20 -4 -22 -3 -10 5 12 9 11 10 -7 5
-14 -4 -23 -2 -23 4 0 17 115 14 129 -3z m-2164 -3 c-22 -3 -50 -14 -62 -25
-13 -12 -23 -17 -23 -11 0 20 45 42 85 41 l40 -1 -40 -4z m2994 -22 c34 -17
60 -45 50 -55 -14 -15 -87 18 -114 51 l-28 36 29 -7 c16 -4 44 -15 63 -25z
m-3425 4 c-4 -8 -12 -15 -18 -15 -7 0 -23 -11 -36 -25 -13 -14 -33 -25 -44
-25 -17 0 -18 -2 -6 -10 12 -8 11 -10 -7 -10 -32 0 -29 8 19 57 30 30 50 43
70 43 20 0 26 -4 22 -15z m216 2 c0 -16 -54 -45 -100 -53 l-35 -7 50 36 c52
37 85 46 85 24z m2251 3 c10 -6 19 -20 19 -30 0 -24 4 -24 -69 -4 -42 12 -58
21 -54 30 6 17 75 19 104 4z m1027 -14 c27 -14 55 -32 63 -42 13 -16 12 -17
-15 -10 -26 6 -106 61 -106 72 0 8 11 4 58 -20z m85 -23 c26 -19 47 -38 47
-42 0 -3 16 -15 35 -25 43 -24 64 -46 43 -46 -24 0 -129 73 -116 81 6 4 -12
20 -45 39 -32 18 -57 34 -57 37 0 11 49 -12 93 -44z m-840 2 l18 -25 -31 0
c-17 0 -29 4 -26 9 6 9 -23 20 -64 22 -14 1 -2 5 25 9 28 4 52 7 55 8 3 1 13
-10 23 -23z m-2452 8 c-25 -3 -58 -14 -73 -25 -16 -11 -31 -18 -34 -15 -3 2
10 14 28 26 23 14 47 20 78 19 l45 -1 -44 -4z m2334 -22 c21 -17 22 -56 2 -48
-7 2 -37 12 -67 22 -65 21 -62 19 -55 36 7 19 93 12 120 -10z m-2557 -8 c2 -7
-3 -13 -12 -13 -21 0 -86 -32 -86 -42 0 -4 -10 -8 -22 -8 -18 0 -11 8 32 40
55 40 80 46 88 23z m-212 -28 c0 -13 -4 -21 -7 -19 -10 5 -119 -42 -112 -49 3
-4 2 -7 -4 -7 -26 0 -20 18 22 60 38 38 51 46 74 42 23 -3 28 -9 27 -27z
m3699 2 c66 -23 102 -67 56 -67 -36 0 -67 18 -96 56 -23 31 -25 36 -9 30 10
-5 33 -13 49 -19z m-3388 7 c-3 -3 -12 -4 -19 -1 -8 3 -5 6 6 6 11 1 17 -2 13
-5z m2600 -26 c20 -12 30 -24 26 -34 -7 -19 -21 -18 -82 7 -36 15 -51 27 -51
41 0 16 5 18 38 12 20 -3 51 -15 69 -26z m748 -9 c16 -16 24 -29 17 -29 -6 0
-12 -9 -12 -20 0 -19 -4 -20 -37 -14 -38 6 -56 22 -88 77 l-18 30 54 -7 c41
-5 61 -14 84 -37z m-3410 22 c-17 -4 -44 -16 -60 -26 l-30 -18 30 26 c19 16
41 26 60 26 l30 -1 -30 -7z m-185 -31 c0 -8 -24 -21 -48 -26 -8 -1 -21 -9 -30
-17 -21 -17 -52 -29 -52 -19 1 4 24 23 53 43 47 33 77 40 77 19z m3820 -10
c25 -16 39 -30 32 -30 -7 0 -31 14 -54 30 -53 39 -37 39 22 0z m-698 -22 c9
-12 15 -24 13 -26 -9 -9 -94 11 -88 21 3 5 1 7 -5 3 -12 -7 -62 13 -62 26 0 4
28 6 62 3 50 -3 66 -9 80 -27z m-3338 0 c6 -23 -18 -53 -35 -43 -4 3 -11 0
-15 -6 -5 -8 -3 -9 7 -4 12 8 12 6 0 -8 -13 -17 -91 -25 -91 -10 0 4 19 27 42
50 47 48 82 56 92 21z m281 12 c-3 -5 -15 -10 -27 -10 -11 0 -33 -9 -50 -21
-16 -12 -31 -19 -34 -16 -8 7 49 42 81 48 17 4 31 7 33 8 2 0 0 -3 -3 -9z
m2929 -15 c14 -10 26 -26 26 -37 0 -23 -18 -21 -94 12 -35 14 -44 23 -39 36 8
21 68 15 107 -11z m-3565 3 c18 -11 18 -13 -11 -50 -17 -20 -34 -35 -38 -33
-4 2 -20 0 -36 -5 -28 -8 -28 -8 10 -9 22 -1 36 -4 33 -8 -4 -3 -2 -12 5 -20
9 -11 6 -19 -12 -36 -12 -12 -19 -16 -15 -9 6 11 3 11 -14 1 -12 -8 -16 -16
-10 -20 6 -3 -7 -9 -28 -12 -67 -11 -67 -11 -34 48 24 42 28 55 16 55 -43 0
23 96 70 103 17 2 33 5 38 5 4 1 16 -3 26 -10z m4334 0 c12 -6 34 -13 50 -15
15 -2 40 -4 56 -6 28 -4 125 -66 116 -75 -2 -3 -19 6 -37 20 -44 33 -69 45
-39 19 38 -34 16 -37 -31 -5 -62 42 -77 49 -45 20 38 -36 36 -57 -5 -49 -30 6
-106 74 -108 96 0 10 18 9 43 -5z m-77 -13 c35 -7 97 -65 77 -72 -7 -3 -13
-12 -13 -20 0 -10 -6 -13 -16 -9 -9 3 -28 6 -43 6 -23 0 -33 9 -54 49 -27 49
-26 65 2 57 9 -3 30 -7 47 -11z m-543 -53 c15 -15 15 -21 4 -36 -12 -17 -15
-17 -60 5 -32 16 -47 29 -47 42 0 17 5 19 43 13 23 -4 50 -15 60 -24z m-3507
-6 c2 -33 -42 -73 -93 -84 -24 -6 -43 -6 -43 -2 0 5 18 31 40 59 31 39 47 51
68 51 22 0 27 -5 28 -24z m270 17 c-16 -3 -46 -16 -65 -31 l-36 -26 29 32 c24
25 37 32 65 31 33 -2 34 -2 7 -6z m-1546 -13 c-8 -5 -19 -10 -25 -10 -5 0 -3
5 5 10 8 5 20 10 25 10 6 0 3 -5 -5 -10z m805 -20 c12 -20 -30 -57 -78 -70
-27 -7 -50 -10 -53 -8 -9 9 40 61 70 74 38 16 53 17 61 4z m4819 -61 c41 -35
39 -65 -3 -54 -14 4 -32 12 -40 18 -19 16 -71 88 -71 99 0 13 75 -28 114 -63z
m-5606 8 c12 -3 9 -6 -11 -12 -22 -6 -31 -3 -42 11 -13 17 -12 21 8 38 22 18
22 18 25 -7 2 -14 11 -28 20 -30z m4888 21 c14 -14 8 -58 -8 -58 -5 0 -6 5 -2
12 4 6 3 8 -3 5 -12 -8 -93 22 -93 35 0 4 10 8 23 9 21 0 21 1 2 10 -15 7 -9
8 24 5 24 -2 50 -10 57 -18z m740 -6 c21 -16 45 -36 53 -45 7 -9 17 -14 22
-12 9 6 92 -45 85 -52 -2 -3 -21 7 -42 21 -27 18 -40 22 -45 14 -5 -7 -28 7
-68 41 -34 29 -61 55 -61 57 0 10 20 2 56 -24z m-4216 8 c0 -5 -10 -10 -21
-10 -12 0 -38 -9 -58 -21 l-36 -21 30 26 c16 14 41 27 55 29 14 2 26 5 28 6 1
0 2 -3 2 -9z m-1308 -35 c6 -28 4 -29 -23 -15 -16 9 -17 15 -9 31 13 24 26 18
32 -16z m-202 5 c-6 -11 -13 -20 -16 -20 -2 0 0 9 6 20 6 11 13 20 16 20 2 0
0 -9 -6 -20z m143 5 c-3 -9 -8 -14 -10 -11 -3 3 -2 9 2 15 9 16 15 13 8 -4z
m1060 -14 c-4 -15 -65 -53 -95 -57 -4 -1 -11 -2 -15 -3 -5 -1 -1 -6 7 -11 12
-8 11 -10 -7 -10 -13 0 -23 3 -23 6 0 3 17 25 38 49 29 35 44 44 69 45 26 0
30 -3 26 -19z m3909 -34 c11 -15 14 -27 7 -38 -8 -16 -14 -14 -63 12 -40 22
-53 34 -49 46 9 22 83 9 105 -20z m-4364 14 c11 -6 9 -14 -10 -34 -24 -27
-128 -74 -128 -57 0 5 5 12 10 15 6 3 10 11 10 17 0 5 -23 -9 -50 -32 -28 -24
-53 -41 -55 -38 -8 8 74 81 92 83 10 0 29 8 43 17 63 39 69 41 88 29z m100 -7
c14 -14 14 -19 1 -42 -10 -19 -28 -29 -67 -37 -29 -7 -54 -9 -56 -6 -3 4 11
28 30 54 36 50 63 59 92 31z m4333 10 c26 -4 40 -14 48 -31 11 -23 10 -24 -27
-17 -20 3 -48 17 -62 30 -27 26 -22 28 41 18z m-3830 -20 c-25 -8 -57 -26 -73
-41 -15 -14 -30 -24 -33 -22 -3 3 8 17 23 31 29 27 74 47 107 46 11 0 0 -6
-24 -14z m4427 -21 c40 -24 102 -85 102 -99 0 -10 -11 -9 -45 3 -39 13 -50 23
-71 64 -27 54 -26 57 14 32z m77 -19 c19 -14 42 -27 52 -29 10 -1 17 -7 16
-13 -1 -5 7 -18 17 -27 29 -26 24 -38 -7 -21 -29 15 -133 116 -119 116 4 0 23
-12 41 -26z m-4803 -6 c-6 -30 -112 -109 -112 -84 0 3 14 27 31 55 26 41 37
51 59 51 23 0 26 -4 22 -22z m4175 -20 c17 -16 20 -24 11 -38 -11 -17 -15 -16
-60 12 -47 29 -54 38 -42 51 11 11 68 -5 91 -25z m-4087 -7 c0 -5 -8 -12 -17
-15 -10 -4 -36 -22 -57 -41 -52 -48 -58 -36 -10 19 36 40 84 61 84 37z m90 -1
c0 -5 -9 -10 -20 -10 -11 0 -38 -16 -60 -36 -48 -44 -64 -41 -17 3 26 25 50
38 95 52 1 1 2 -3 2 -9z m-404 -15 c-3 -8 1 -18 9 -23 12 -6 10 -14 -10 -45
-24 -34 -29 -37 -75 -37 -28 0 -50 4 -50 8 0 4 13 29 29 54 24 37 36 47 63 51
18 2 35 5 37 5 2 1 1 -5 -3 -13z m-216 -14 c-1 -18 -34 -46 -81 -67 -28 -14
-54 -23 -56 -21 -9 10 109 106 122 100 8 -3 15 -8 15 -12z m5362 2 c-1 -4 6
-15 13 -23 7 -8 14 -19 14 -23 0 -11 101 -101 101 -91 0 4 -12 21 -27 36 -15
15 -25 28 -22 28 3 0 31 -28 64 -62 46 -47 51 -55 23 -35 -24 18 -39 23 -44
16 -7 -12 -114 87 -114 107 0 6 -9 19 -20 29 -15 14 -17 20 -8 26 13 8 20 6
20 -8z m-5972 3 c0 -2 3 -12 7 -22 5 -14 3 -16 -11 -11 -10 4 -26 2 -37 -3
-23 -13 -25 -3 -2 22 14 16 43 25 43 14z m5324 -22 c53 -18 78 -52 57 -78 -10
-12 -21 -9 -72 21 -55 33 -69 50 -52 66 9 10 13 9 67 -9z m525 -14 c54 -24 93
-73 65 -84 -8 -3 -12 -10 -9 -16 7 -12 -1 -12 -44 -4 -24 5 -37 18 -61 59 -16
29 -30 55 -30 59 0 12 31 6 79 -14z m-5751 -20 c-1 -29 -2 -29 -19 -14 -18 16
-18 18 -1 30 9 7 18 14 19 14 1 0 1 -14 1 -30z m5502 -5 c24 -8 40 -23 52 -46
16 -33 16 -34 -6 -42 -37 -12 -93 17 -115 62 -11 21 -17 41 -14 45 7 6 16 4
83 -19z m131 13 c27 -8 45 -22 59 -45 24 -41 24 -43 5 -43 -8 0 -15 -7 -15
-15 0 -15 -12 -15 -73 2 -19 5 -70 96 -60 107 10 9 42 7 84 -6z m294 -8 c3 -5
2 -10 -4 -10 -5 0 -13 5 -16 10 -3 6 -2 10 4 10 5 0 13 -4 16 -10z m-4960 -20
c-27 -12 -43 -12 -25 0 8 5 22 9 30 9 10 0 8 -3 -5 -9z m-1138 -22 c-3 -8 -6
-5 -6 6 -1 11 2 17 5 13 3 -3 4 -12 1 -19z m-48 -39 c-26 -67 -38 -89 -48 -89
-4 0 8 32 27 70 19 39 36 70 38 70 2 0 -5 -23 -17 -51z m1121 21 c-12 -16 -24
-30 -26 -30 -7 0 5 20 24 43 24 27 25 20 2 -13z m4460 -5 c57 -29 77 -56 55
-75 -12 -10 -25 -6 -70 25 -30 21 -55 39 -55 41 0 7 13 34 16 34 3 0 27 -11
54 -25z m-5295 6 c-3 -5 5 -26 16 -46 21 -35 21 -37 3 -33 -37 7 -59 88 -24
88 6 0 9 -4 5 -9z m-264 -63 c-23 -67 -41 -102 -48 -94 -3 3 6 29 19 58 14 29
28 63 33 76 4 13 9 22 11 19 2 -2 -5 -29 -15 -59z m895 47 c9 -8 13 -16 10
-16 -3 -1 -10 -2 -15 -3 -5 0 -13 -5 -18 -10 -5 -5 -3 -6 5 -2 17 10 14 -5 -6
-30 -16 -19 -102 -43 -102 -28 0 3 12 28 28 55 22 41 32 49 55 49 16 0 35 -7
43 -15z m-958 -20 c-6 -14 -13 -23 -15 -21 -5 5 15 46 22 46 3 0 -1 -11 -7
-25z m138 0 c-22 -17 -9 -20 27 -6 30 12 67 -10 67 -40 0 -10 -2 -19 -5 -19
-14 0 -115 43 -115 49 0 11 23 31 35 31 5 0 1 -7 -9 -15z m5619 -11 c37 -13
73 -49 61 -61 -11 -12 -99 34 -119 61 -20 28 -20 29 -1 22 10 -5 37 -14 59
-22z m493 -20 c55 -48 57 -51 44 -72 -16 -25 -60 4 -87 57 -39 78 -32 81 43
15z m-5173 9 c-16 -9 -37 -25 -48 -37 -18 -21 -18 -20 -1 7 10 16 27 33 38 37
35 15 43 10 11 -7z m5260 -47 c58 -52 72 -84 23 -52 -27 18 -103 106 -91 106
4 0 35 -24 68 -54z m-6190 14 c22 -11 51 -20 65 -20 l25 -1 -24 -19 c-13 -11
-33 -20 -45 -20 -31 0 -61 24 -53 42 3 9 0 21 -6 27 -16 16 -7 14 38 -9z m672
-7 c-4 -3 -2 -12 4 -19 12 -14 -6 -58 -20 -50 -5 3 -16 -3 -26 -14 -10 -11
-15 -20 -10 -20 4 0 14 8 22 18 11 13 13 13 11 2 -4 -15 -88 -64 -96 -56 -9
10 53 129 72 136 26 11 52 12 43 3z m4943 -16 c0 -1 -14 -2 -30 -3 -24 -1 -28
2 -19 12 8 10 16 11 30 3 10 -5 19 -11 19 -12z m333 -48 c53 -6 150 -23 215
-39 115 -29 298 -88 275 -89 -6 -1 -20 -4 -30 -7 -15 -5 -16 -4 -3 6 12 10 11
11 -9 6 -14 -3 -67 6 -119 19 -120 32 -154 31 -43 0 104 -30 141 -45 141 -58
0 -10 -69 -4 -103 9 -9 3 -17 2 -17 -4 0 -5 40 -17 89 -26 97 -18 172 -42 91
-29 -25 3 -59 7 -77 7 -17 1 -29 3 -27 6 3 2 -14 10 -38 17 -24 6 -53 15 -65
18 -13 4 -23 3 -23 -3 0 -5 16 -13 35 -16 19 -4 37 -11 40 -16 9 -14 -34 -12
-91 5 -27 8 -97 19 -156 24 -59 6 -120 13 -135 17 -52 13 -15 -8 59 -32 80
-26 80 -26 -67 -9 -30 4 -35 3 -20 -4 11 -5 32 -10 48 -10 15 -1 27 -6 27 -12
0 -7 -13 -9 -37 -5 -21 4 -57 7 -81 8 -25 1 -41 6 -39 12 2 6 -23 32 -55 59
-61 51 -76 71 -32 42 14 -9 28 -14 31 -12 3 3 23 -1 45 -9 47 -16 48 -16 48
-6 0 4 -23 16 -52 26 -28 10 -60 28 -70 41 -10 13 -38 31 -63 41 -61 26 -57
35 8 18 58 -15 129 -17 167 -3 21 7 18 8 -13 4 -21 -2 -61 -1 -90 3 l-52 7 40
5 c47 6 112 3 248 -11z m247 1 c24 -18 24 -19 3 -14 -12 4 -28 12 -34 20 -17
20 2 17 31 -6z m-6370 -9 c-5 -11 -15 -23 -20 -26 -6 -4 -7 -12 -4 -18 5 -8 3
-8 -6 0 -11 11 -10 17 10 38 28 30 34 32 20 6z m0 -102 c-6 -11 -8 -24 -5 -29
3 -6 -1 -7 -9 -4 -19 7 -21 35 -4 52 17 17 30 4 18 -19z m207 -39 c-3 -25 -1
-40 6 -40 6 0 8 -3 4 -6 -3 -3 -15 -3 -26 1 -15 5 -19 13 -16 35 4 35 12 50
27 50 7 0 9 -15 5 -40z m103 -6 c0 -24 -4 -34 -12 -32 -24 8 -22 68 2 68 5 0
10 -16 10 -36z m4221 -15 c-69 -49 -138 -142 -161 -215 -11 -36 -20 -77 -20
-90 0 -13 -4 -24 -10 -24 -20 0 -7 60 43 194 18 49 156 185 174 172 9 -6 2
-16 -26 -37z m-4453 3 c2 -12 8 -22 13 -22 6 0 7 -5 3 -11 -4 -7 -15 -1 -29
17 -23 29 -24 48 -2 41 7 -2 13 -13 15 -25z m4507 -19 c-8 -16 -22 -38 -31
-50 -10 -14 -12 -23 -5 -28 7 -3 11 3 11 16 0 12 3 20 6 17 3 -3 23 11 45 33
32 32 39 35 39 19 0 -11 -4 -20 -10 -20 -11 0 -70 -78 -70 -93 0 -6 12 6 28
26 32 44 68 71 82 62 16 -10 12 -21 -12 -34 -21 -11 -21 -11 7 -6 l30 6 -30
-26 c-16 -15 -23 -24 -15 -22 8 3 24 8 35 12 17 6 17 4 -4 -14 -13 -12 -30
-21 -38 -21 -8 0 -11 -5 -8 -11 4 -6 13 -8 21 -5 8 3 14 0 14 -5 0 -7 10 -5
24 5 14 9 27 12 30 7 7 -10 -37 -41 -57 -41 -8 0 -26 -18 -41 -40 -34 -52 -34
-66 1 -17 14 20 34 37 44 37 9 0 26 3 36 6 14 5 13 2 -5 -13 -26 -21 -54 -71
-47 -83 3 -5 1 -11 -5 -15 -5 -3 -10 -14 -9 -23 0 -11 3 -12 6 -4 5 13 23 17
23 4 0 -5 -9 -18 -20 -30 -15 -16 -18 -27 -12 -39 14 -28 25 -81 12 -63 -5 8
-10 10 -10 4 0 -5 7 -19 15 -30 13 -17 14 -14 10 36 -4 40 0 64 12 90 24 47
113 107 97 65 -4 -8 -12 -15 -18 -15 -7 0 -27 -16 -46 -35 -30 -31 -34 -41
-33 -86 1 -37 5 -55 17 -61 20 -11 21 -38 2 -38 -7 0 -26 10 -42 23 l-29 22
23 -32 c13 -18 39 -46 60 -64 25 -21 29 -27 12 -18 -14 7 -36 14 -49 15 -13 2
-29 8 -35 15 -8 8 -5 10 14 5 24 -7 24 -6 6 8 -11 9 -29 17 -40 17 -12 1 -25
2 -31 4 -5 1 -16 3 -22 3 -7 1 -32 19 -55 40 -24 20 -37 29 -29 19 12 -15 12
-17 -2 -11 -27 10 -56 66 -51 99 2 17 1 24 -2 18 -25 -55 -33 72 -9 152 16 56
81 155 101 155 7 0 16 10 19 23 6 18 41 56 53 57 1 0 -4 -12 -13 -27z m2122
-16 c6 -4 19 -4 30 -1 15 5 16 4 2 -5 -12 -7 -37 -5 -92 10 -43 12 -77 24 -77
28 0 8 118 -20 137 -32z m-2229 -60 c-45 -53 -69 -92 -81 -131 -10 -31 -16
-60 -12 -65 3 -5 1 -12 -4 -15 -5 -4 -12 -3 -15 2 -8 13 20 109 40 140 26 40
126 153 131 148 3 -2 -24 -38 -59 -79z m2209 37 c-3 -3 -12 -4 -19 -1 -8 3 -5
6 6 6 11 1 17 -2 13 -5z m-6815 -79 c-2 -14 -9 -25 -14 -25 -6 0 -7 7 -4 16 3
9 6 20 6 25 0 5 4 9 9 9 4 0 6 -11 3 -25z m4843 5 c-10 -11 -23 -20 -29 -20
-6 0 0 9 14 20 32 25 38 25 15 0z m-4886 -104 c-5 -6 -9 15 -8 55 l1 64 9 -55
c4 -32 4 -59 -2 -64z m139 10 c-13 -16 -18 -1 -11 35 l7 34 6 -30 c4 -16 3
-34 -2 -39z m-177 30 c-7 -8 -10 -24 -6 -36 4 -11 2 -20 -4 -20 -15 0 -14 53
1 68 16 16 24 6 9 -12z m117 -26 c-3 -43 -18 -56 -18 -16 0 25 9 56 16 56 3 0
3 -18 2 -40z m97 -37 c-10 -29 -10 -40 -2 -45 8 -5 6 -8 -5 -8 -14 0 -18 8
-18 39 0 35 8 47 31 50 4 1 1 -16 -6 -36z m4765 29 c0 -12 -59 -44 -70 -37
-13 8 -13 25 1 25 5 0 7 -4 4 -10 -10 -16 8 -11 35 10 28 22 30 23 30 12z m-4
-47 c-11 -8 -24 -15 -30 -15 -5 0 -1 7 10 15 10 8 24 14 29 14 6 0 1 -6 -9
-14z m1397 -2 c-13 -2 -35 -2 -50 0 -16 2 -5 4 22 4 28 0 40 -2 28 -4z m-6090
-25 c2 -7 -1 -27 -9 -45 -11 -28 -10 -32 4 -36 12 -3 11 -5 -5 -6 -18 -1 -23
6 -29 34 -8 45 25 90 39 53z m6067 -18 c0 -11 -60 -11 -105 0 -23 6 -15 8 38
9 39 1 67 -3 67 -9z m-1747 -47 c4 -20 4 -40 1 -45 -8 -13 -24 -9 -18 5 2 7 1
23 -3 35 -6 15 -12 19 -23 12 -11 -7 -12 -13 -2 -34 6 -14 8 -26 3 -26 -9 0
-21 33 -21 58 0 6 7 12 15 12 8 0 15 5 15 10 0 6 6 10 14 10 8 0 16 -15 19
-37z m381 2 c-4 -8 -11 -12 -16 -9 -6 4 -5 10 3 15 19 12 19 11 13 -6z m1659
-39 c7 -21 6 -32 -5 -42 -12 -13 -20 -8 -56 35 l-42 50 27 3 c37 5 65 -12 76
-46z m367 24 c19 -71 20 -81 11 -76 -5 4 -16 0 -24 -8 -12 -12 -18 -11 -45 6
-18 11 -32 26 -32 33 0 7 -3 27 -6 44 l-7 32 48 -3 c42 -3 50 -6 55 -28z m52
3 c42 -46 60 -80 53 -103 -8 -25 -14 -25 -46 3 -21 18 -49 87 -49 121 0 14 18
4 42 -21z m-2695 -20 c-3 -10 -5 -4 -5 12 0 17 2 24 5 18 2 -7 2 -21 0 -30z
m573 -13 c0 -5 -2 -10 -4 -10 -3 0 -8 5 -11 10 -3 6 -1 10 4 10 6 0 11 -4 11
-10z m-4600 -11 c0 -4 -5 -11 -11 -15 -6 -3 -9 -15 -6 -25 3 -11 1 -17 -4 -13
-16 9 -11 61 6 61 8 0 15 -4 15 -8z m4286 -14 c-5 -18 0 -31 15 -46 11 -11 19
-22 17 -25 -3 -2 -17 9 -32 25 -24 26 -26 31 -14 50 17 28 22 27 14 -4z m-259
-17 c-3 -8 -6 -5 -6 6 -1 11 2 17 5 13 3 -3 4 -12 1 -19z m-4371 -44 c-10 -27
-15 -33 -15 -17 -1 24 21 81 26 66 2 -5 -3 -27 -11 -49z m6738 -33 c16 -28 17
-35 5 -46 -12 -12 -21 -6 -61 44 -34 43 -44 61 -35 70 14 14 65 -24 91 -68z
m337 34 c35 -23 57 -54 63 -93 1 -7 19 -24 38 -37 20 -14 39 -34 42 -45 3 -11
8 -29 11 -39 5 -16 2 -18 -15 -14 -14 4 -20 1 -20 -10 0 -14 -4 -14 -32 -3
-38 16 -50 45 -46 109 2 40 1 45 -9 30 -12 -15 -15 -16 -47 -1 -27 13 -34 24
-40 56 -3 22 -9 47 -12 56 -9 24 20 20 67 -9z m-7048 -12 c-8 -23 -33 -60 -33
-50 0 11 29 67 35 67 2 0 2 -8 -2 -17z m-62 -24 c-9 -22 -10 -22 -10 -3 -1 11
2 24 6 27 12 12 14 0 4 -24z m4760 -20 c64 -46 66 -49 35 -49 -16 0 -25 4 -21
10 7 11 -33 49 -52 50 -6 0 -15 5 -18 10 -12 19 12 10 56 -21z m-4702 -33
c-13 -29 -32 -36 -22 -8 8 22 25 44 30 39 2 -3 -2 -16 -8 -31z m-67 -6 c-12
-12 -22 -15 -22 -9 0 13 32 40 39 33 3 -2 -5 -13 -17 -24z m5023 12 c-3 -3
-11 0 -18 7 -9 10 -8 11 6 5 10 -3 15 -9 12 -12z m1945 -9 c42 -24 49 -32 52
-63 3 -34 2 -36 -25 -35 -37 2 -73 38 -85 86 -12 47 -7 48 58 12z m396 -60
c28 -43 58 -93 68 -110 9 -18 28 -49 42 -70 24 -36 94 -176 94 -188 0 -4 -4
-3 -10 0 -5 3 -10 1 -10 -5 0 -6 -4 -8 -10 -5 -5 3 -10 2 -10 -4 0 -16 18 -22
23 -9 2 7 13 -5 25 -27 12 -22 21 -36 22 -32 0 4 -7 21 -15 37 -9 17 -11 30
-6 30 13 0 94 -198 87 -215 -3 -8 0 -15 6 -15 6 0 8 -3 5 -7 -4 -3 -2 -12 4
-20 9 -10 8 -13 -4 -13 -17 0 -31 44 -21 63 4 7 4 9 -1 5 -7 -7 -46 64 -44 80
4 23 -2 42 -11 37 -6 -3 -18 7 -28 24 -17 31 -32 40 -32 20 0 -24 -20 5 -36
54 -9 28 -19 58 -22 66 -3 9 -1 12 6 7 9 -5 9 0 2 20 -6 15 -8 36 -5 48 2 11
2 15 -1 8 -3 -6 -10 -10 -15 -6 -5 3 -4 -7 1 -21 15 -40 12 -50 -10 -30 -10 9
-26 41 -35 71 -8 29 -20 56 -25 59 -6 4 -27 38 -46 77 -26 52 -32 73 -23 78 9
6 6 16 -10 39 -12 17 -18 31 -14 31 5 0 32 -35 59 -77z m-513 28 c42 -46 55
-80 36 -92 -21 -13 -21 -13 -66 50 -30 43 -38 62 -30 70 17 17 22 14 60 -28z
m-6823 20 c0 -5 -9 -19 -21 -32 l-20 -24 17 33 c19 33 24 38 24 23z m54 -33
c-14 -26 -19 -29 -22 -15 -2 10 4 27 14 38 25 27 28 17 8 -23z m7021 20 c42
-20 45 -25 45 -60 0 -27 -4 -38 -15 -38 -9 0 -18 -7 -21 -15 -5 -12 -11 -11
-38 7 -17 12 -32 22 -32 22 -1 1 -5 25 -9 54 -8 61 -1 64 70 30z m-7090 -67
c-19 -38 -28 -41 -14 -5 13 35 20 46 26 41 2 -3 -3 -19 -12 -36z m6978 -59 c7
-38 1 -40 -34 -6 -31 29 -59 74 -59 94 0 22 88 -61 93 -88z m-6957 9 c-9 -16
-12 -31 -9 -35 4 -3 1 -6 -5 -6 -16 0 -15 43 0 58 22 22 29 13 14 -17z m6896
-12 c27 -20 58 -72 58 -99 0 -5 -8 -10 -19 -10 -21 0 -95 105 -86 120 9 14 13
13 47 -11z m259 0 l49 -21 0 -49 c0 -36 -3 -47 -13 -43 -8 3 -19 -2 -26 -10
-11 -13 -16 -13 -42 6 -21 16 -30 33 -35 64 -6 42 -1 74 11 74 4 0 29 -10 56
-21z m-7106 -49 c-9 -17 -13 -35 -10 -40 3 -6 -1 -10 -9 -10 -9 0 -16 6 -16
14 0 8 -2 21 -5 28 -4 9 4 19 17 26 36 17 40 14 23 -18z m102 -5 c-2 -41 -14
-45 -27 -9 -14 36 -13 44 9 44 16 0 19 -6 18 -35z m-195 -29 c-9 -19 -19 -30
-21 -24 -4 12 19 58 30 58 5 0 1 -15 -9 -34z m-60 -52 c-12 -26 -18 -32 -20
-20 -2 10 4 26 14 37 25 27 26 24 6 -17z m210 10 c-2 -10 -4 -27 -5 -36 -1
-10 -7 -18 -13 -18 -23 0 -34 65 -11 73 20 9 32 1 29 -19z m6880 -21 c33 -36
45 -73 27 -84 -23 -14 -28 -11 -54 41 -36 70 -21 93 27 43z m275 -14 c7 -7 13
-32 13 -59 0 -44 3 -50 35 -69 31 -18 35 -25 35 -61 0 -23 -4 -39 -9 -35 -6 3
-16 -1 -23 -8 -11 -12 -18 -11 -45 7 -29 19 -33 26 -33 68 0 34 5 50 18 57 15
9 15 10 0 11 -9 0 -18 -6 -21 -12 -3 -9 -12 -6 -30 10 -18 17 -26 37 -29 70
-3 26 -3 50 -1 54 4 8 68 -16 90 -33z m82 -4 c38 -35 40 -35 43 -14 3 21 5 20
31 -14 31 -41 42 -85 28 -107 -8 -12 -13 -11 -34 8 -25 23 -52 29 -62 12 -9
-15 -23 -12 -45 10 -16 16 -20 33 -20 80 0 33 4 60 10 60 5 0 28 -16 49 -35z
m-7504 -86 c-9 -17 -19 -28 -22 -25 -6 6 23 56 32 56 3 0 -2 -14 -10 -31z
m7223 -28 c41 -51 50 -86 25 -99 -17 -9 -23 -3 -52 49 -30 55 -35 89 -13 89 5
0 23 -17 40 -39z m-7242 -43 c4 -6 3 -8 -3 -5 -6 4 -13 0 -17 -8 -3 -8 -11
-15 -17 -15 -7 0 -5 8 6 20 21 23 22 24 31 8z m5474 -33 c20 -24 6 -28 -15 -5
-10 11 -13 20 -8 20 6 0 16 -7 23 -15z m-5469 -14 c-6 -10 -7 -21 -4 -25 3 -3
-1 -6 -10 -6 -20 0 -22 21 -5 38 18 18 30 14 19 -7z m38 -60 c-9 -27 -9 -35 2
-43 11 -7 10 -8 -5 -6 -12 2 -23 14 -27 31 -6 21 -3 30 14 42 27 19 30 15 16
-24z m7273 12 c14 -16 29 -43 33 -60 6 -30 4 -33 -17 -33 -19 0 -29 11 -50 54
-26 51 -25 61 3 65 3 1 17 -11 31 -26z m245 -9 c29 -22 33 -31 33 -71 0 -38
-3 -44 -16 -39 -9 4 -23 1 -31 -5 -21 -18 -63 26 -63 65 0 80 21 93 77 50z
m-7606 -52 c-16 -30 -14 -36 7 -21 14 11 14 10 -2 -8 -10 -13 -23 -20 -27 -17
-16 9 -10 53 8 63 23 12 27 7 14 -17z m5404 8 c3 -5 1 -10 -4 -10 -6 0 -11 5
-11 10 0 6 2 10 4 10 3 0 8 -4 11 -10z m32 -47 c-8 -7 -37 9 -31 19 3 5 12 4
20 -3 8 -6 13 -14 11 -16z m2116 -26 c29 -23 37 -35 37 -62 0 -27 -4 -33 -25
-37 -34 -7 -63 33 -72 98 -7 53 -6 53 60 1z m-7508 11 c-4 -13 -7 -31 -8 -41
-1 -9 -6 -16 -12 -14 -15 5 -18 46 -5 63 19 22 33 17 25 -8z m7820 -57 c4 -3
10 1 15 9 7 11 10 7 10 -15 0 -16 5 -37 11 -45 8 -12 9 -10 4 8 -3 12 -2 22 2
22 10 0 47 -130 39 -138 -4 -3 -6 2 -6 11 0 9 -7 20 -14 24 -8 5 -22 24 -30
43 -8 19 -16 28 -16 20 -1 -27 -28 19 -45 76 -20 69 -18 78 5 30 11 -22 22
-42 25 -45z m-437 39 c28 -37 29 -76 3 -83 -16 -4 -24 5 -41 46 -18 40 -19 51
-8 58 20 13 22 12 46 -21z m112 -139 c0 -30 -14 -26 -43 12 -22 29 -32 61 -28
91 2 17 71 -83 71 -103z m-7589 64 c15 10 10 -1 -6 -15 -13 -11 -15 -8 -14 16
1 17 3 22 6 11 2 -9 9 -15 14 -12z m7906 -30 c10 -21 20 -31 24 -24 3 6 13 -8
22 -32 20 -57 29 -99 21 -99 -15 0 -33 37 -35 70 -1 28 -3 30 -6 10 -13 -71
-62 -26 -63 58 0 60 13 67 37 17z m-7862 -5 c-9 -17 -13 -35 -10 -40 3 -6 2
-10 -4 -10 -19 0 -23 41 -5 61 26 29 37 23 19 -11z m7501 -42 c18 -35 18 -68
-1 -68 -8 0 -18 -1 -21 -2 -3 -2 -17 24 -30 56 -18 46 -21 62 -12 67 15 9 44
-15 64 -53z m-7593 -3 c-3 -9 -8 -14 -10 -11 -3 3 -2 9 2 15 9 16 15 13 8 -4z
m7825 -15 c44 -31 46 -37 36 -89 -5 -22 -12 -31 -23 -29 -9 1 -21 -1 -27 -4
-6 -4 -23 6 -39 22 -25 26 -27 33 -20 79 4 31 12 51 19 51 7 0 32 -14 54 -30z
m-7873 -89 c-25 -65 -39 -76 -31 -22 8 55 38 115 44 87 2 -10 -4 -39 -13 -65z
m7960 71 c45 -32 55 -110 18 -137 -27 -20 -66 9 -59 44 2 14 7 43 11 64 6 37
12 43 30 29z m-7912 -17 c4 -8 2 -17 -3 -20 -6 -4 -10 3 -10 14 0 25 6 27 13
6z m52 -17 c-3 -18 -8 -40 -9 -47 -2 -8 -8 -17 -14 -19 -18 -6 -14 46 6 73 23
32 26 31 17 -7z m7594 -83 c10 -35 6 -45 -18 -45 -24 0 -60 98 -40 111 17 10
45 -22 58 -66z m141 -37 c-14 -30 -44 -27 -72 6 -17 21 -24 86 -11 100 4 4 27
-13 51 -37 40 -40 42 -46 32 -69z m-7816 37 c-19 -64 -39 -85 -31 -33 5 33 35
93 43 85 2 -1 -3 -25 -12 -52z m127 -17 c-15 -42 -14 -51 5 -44 8 3 12 2 9 -4
-13 -21 -34 -9 -45 25 -11 32 -10 37 12 54 27 23 34 12 19 -31z m7608 -22 c28
-41 33 -76 11 -76 -17 0 -50 59 -50 89 0 17 2 31 5 31 2 0 18 -20 34 -44z
m-7705 -28 c-18 -53 -18 -63 4 -47 13 11 13 9 -2 -9 -15 -17 -22 -19 -28 -10
-13 21 -9 58 9 88 24 41 35 27 17 -22z m-95 -25 c-26 -76 -43 -93 -34 -33 9
53 32 103 45 95 5 -3 0 -31 -11 -62z m7765 4 c21 -38 18 -80 -6 -85 -21 -4
-54 98 -35 110 19 12 23 10 41 -25z m131 -22 c31 -37 36 -49 30 -76 -5 -21
-10 -28 -17 -21 -6 6 -16 8 -22 6 -18 -7 -46 50 -46 95 0 23 4 41 9 41 5 0 26
-20 46 -45z m-7859 -14 c-4 -41 -34 -101 -49 -101 -11 0 0 54 20 103 21 48 35
47 29 -2z m7809 -57 c28 -47 28 -78 0 -68 -22 9 -45 57 -45 94 0 39 11 33 45
-26z m-7601 10 c3 -8 2 -12 -4 -9 -6 3 -10 10 -10 16 0 14 7 11 14 -7z m-274
-32 c0 -16 -3 -32 -7 -36 -5 -4 -13 -22 -20 -39 l-11 -32 -1 42 c-1 43 16 93
31 93 4 0 8 -13 8 -28z m7830 -22 c26 -52 27 -90 0 -90 -26 0 -61 107 -39 121
8 5 15 9 16 9 2 0 12 -18 23 -40z m159 -91 c-19 -32 -50 -30 -71 4 -21 32 -21
37 -8 73 l11 28 40 -41 c38 -38 40 -42 28 -64z m-7951 48 c2 -10 -9 -44 -25
-75 l-28 -56 -3 50 c-4 63 12 107 35 102 10 -2 19 -11 21 -21z m-88 6 c0 -19
-34 -129 -43 -138 -11 -12 -2 62 14 113 9 28 29 45 29 25z m-10 -178 l-21 -50
4 55 c3 30 10 69 18 85 l13 30 3 -35 c2 -19 -6 -57 -17 -85z m7925 75 c21 -40
20 -82 -2 -78 -16 3 -19 11 -37 81 -9 38 19 36 39 -3z m146 -47 c13 -20 18
-40 14 -53 -7 -21 -20 -26 -30 -10 -3 5 -12 7 -19 4 -22 -8 -48 43 -40 79 3
18 9 36 11 40 7 11 39 -19 64 -60z m-8105 -50 c-13 -68 -27 -113 -36 -113 -8
0 -8 13 3 40 3 8 8 36 12 63 3 26 11 47 17 47 6 0 8 -14 4 -37z m7989 -36 c20
-37 15 -87 -9 -87 -12 0 -26 58 -26 106 0 24 16 15 35 -19z m129 -33 c31 -40
34 -48 24 -70 -7 -15 -17 -23 -26 -19 -7 3 -19 5 -27 5 -28 0 -41 82 -18 123
7 12 11 9 47 -39z m-8109 -58 c-9 -31 -19 -56 -22 -56 -11 0 7 123 20 138 20
25 21 -17 2 -82z m55 -1 c0 -14 -12 -49 -27 -78 l-28 -52 -3 40 c-2 22 4 57
13 78 18 43 45 50 45 12z m8166 -8 l36 -33 -15 -36 c-12 -28 -20 -35 -35 -31
-11 2 -23 0 -27 -6 -4 -7 -16 2 -30 24 -22 32 -23 37 -10 67 24 59 32 60 81
15z m199 -49 c16 5 31 -86 17 -100 -9 -9 -12 1 -13 43 0 29 -3 47 -6 39 -14
-44 -16 -45 -23 -20 -5 14 -8 45 -8 70 l0 45 12 -40 c6 -22 16 -39 21 -37z
m-8465 -18 c-7 -33 -17 -63 -23 -67 -6 -4 -7 4 -3 22 5 19 3 31 -6 36 -8 6 -9
9 -1 9 6 0 9 9 6 23 -4 18 -3 19 6 7 9 -13 11 -12 11 6 0 22 10 37 18 29 3 -2
-1 -32 -8 -65z m8049 16 c15 -62 14 -106 -3 -106 -9 0 -17 23 -24 72 -6 39 -9
75 -6 80 10 15 21 -1 33 -46z m320 3 c28 -38 23 -99 -9 -99 -10 0 -22 -5 -25
-11 -5 -7 -15 -3 -30 11 -25 23 -25 21 10 118 8 21 30 13 54 -19z m-8219 0 c0
-4 3 -16 6 -26 6 -17 6 -17 -7 0 -13 17 -16 12 -25 -48 -10 -65 -9 -66 8 -45
23 28 23 17 1 -21 -23 -39 -36 -32 -50 26 -11 43 -10 51 9 84 12 21 29 37 39
37 11 0 19 -3 19 -7z m8287 -93 c5 -45 3 -54 -12 -60 -11 -4 -22 -1 -27 6 -9
13 -3 94 9 124 5 15 7 15 15 0 5 -10 12 -41 15 -70z m-8417 -15 c-12 -67 -30
-88 -30 -36 0 46 23 126 33 116 7 -7 6 -34 -3 -80z m190 -9 c-5 -15 -11 -52
-12 -82 -2 -30 -8 -57 -13 -59 -6 -1 -18 19 -28 45 -19 49 -19 49 4 90 16 30
27 40 40 37 14 -4 16 -10 9 -31z m-143 -7 c9 -28 7 -44 -9 -90 -12 -30 -25
-55 -31 -55 -11 0 -4 151 8 169 11 19 21 12 32 -24z m-87 -66 c0 -59 -3 -70
-15 -65 -12 4 -15 -3 -15 -33 0 -48 -10 -101 -19 -101 -8 0 10 124 28 187 6
23 11 45 10 50 -2 14 1 33 6 33 3 0 5 -32 5 -71z m8085 31 c17 -33 19 -68 5
-90 -13 -20 -16 -14 -27 58 -10 67 -2 79 22 32z m19 -142 c9 -36 7 -86 -4 -93
-12 -8 -16 5 -24 68 -4 36 -2 47 8 47 8 0 16 -10 20 -22z m434 -53 c2 14 5 16
13 8 8 -8 9 -31 3 -75 -5 -39 -10 -53 -12 -35 -2 15 -8 27 -13 27 -5 0 -8 35
-7 78 1 72 2 74 8 27 4 -27 8 -41 8 -30z m-371 -51 c3 -18 1 -39 -4 -48 -8
-14 -12 -14 -27 -3 -17 12 -18 22 -11 83 l8 69 14 -35 c8 -19 17 -49 20 -66z
m309 59 c10 -47 14 -54 23 -49 5 3 11 -8 15 -25 9 -47 7 -139 -3 -139 -13 0
-20 51 -14 99 4 32 3 42 -5 37 -7 -4 -12 -16 -12 -26 0 -30 -19 -34 -31 -6
-13 27 -3 136 12 136 5 0 11 -12 15 -27z m-158 -8 c11 -13 25 -38 32 -56 12
-27 11 -36 -5 -65 -13 -25 -23 -33 -36 -29 -9 3 -21 1 -25 -6 -8 -14 -37 46
-36 76 1 28 32 105 42 105 5 0 17 -11 28 -25z m-210 -94 c12 -38 6 -131 -8
-131 -10 0 -20 63 -20 123 0 57 13 61 28 8z m132 -22 c19 -50 21 -64 11 -83
-9 -16 -21 -23 -41 -22 -25 1 -29 5 -35 43 -7 47 12 123 30 123 7 0 23 -27 35
-61z m194 12 c24 -37 24 -40 10 -88 -12 -42 -18 -49 -40 -48 -16 1 -33 13 -48
36 l-23 34 29 53 c17 28 34 52 39 52 5 0 20 -17 33 -39z m-271 -80 c9 -33 14
-67 11 -75 -6 -15 -36 -17 -50 -4 -8 9 6 138 16 138 3 0 14 -27 23 -59z m-55
-85 c8 -19 8 -35 -2 -68 l-14 -43 -1 52 c-1 28 -4 58 -7 67 -10 26 12 18 24
-8z m-8010 -180 c-2 -44 0 -55 10 -51 8 3 12 0 10 -7 -8 -24 -33 -13 -51 22
-18 33 -18 37 -2 74 22 52 38 34 33 -38z m-95 36 c3 -16 3 -55 0 -88 -5 -46
-8 -54 -14 -34 -10 36 -11 150 0 150 5 0 11 -13 14 -28z m8115 -6 c14 -32 -2
-96 -25 -96 -13 0 -14 7 -9 38 3 20 6 47 6 60 0 29 14 28 28 -2z m-7919 -133
c0 -24 6 -43 12 -43 5 0 7 -5 4 -10 -10 -16 -29 3 -49 49 -17 37 -17 40 0 72
l18 34 7 -30 c4 -16 7 -49 8 -72z m-141 -4 c-8 -75 -24 -82 -38 -18 -9 40 -9
61 0 83 l11 29 16 -22 c11 -16 14 -37 11 -72z m-79 -16 c-1 -48 -3 -53 -9 -28
-11 45 -11 85 0 85 6 0 9 -25 9 -57z m8135 15 c13 -52 -4 -118 -31 -118 -14 0
-16 24 -7 94 7 49 27 62 38 24z m425 -90 c-21 -109 -22 -118 -9 -98 5 8 10 10
10 4 0 -19 -22 -129 -28 -139 -3 -5 -7 -38 -7 -72 -1 -35 -8 -69 -15 -78 -8
-10 -13 -38 -13 -67 0 -35 -2 -46 -9 -37 -7 10 -8 5 -3 -15 3 -16 2 -41 -4
-55 -5 -14 -17 -52 -27 -83 -19 -66 -40 -79 -30 -19 3 22 9 48 12 58 6 16 5
16 -9 -2 -16 -19 -16 -18 -16 20 0 56 31 129 47 113 9 -9 12 -7 12 13 0 13 2
35 5 49 3 15 0 12 -7 -7 -6 -18 -15 -33 -19 -33 -14 0 -10 53 8 106 14 42 18
46 22 26 5 -18 9 -10 20 35 7 31 19 67 27 78 8 10 13 33 13 50 -2 26 -2 27 -6
6 -3 -13 -11 -30 -18 -37 -7 -7 -15 -31 -19 -53 -7 -47 -26 -55 -26 -12 0 43
22 131 33 131 5 0 6 -11 3 -25 -4 -14 -2 -25 4 -25 6 0 10 28 10 65 0 39 6 75
14 88 8 12 17 41 21 65 4 23 10 42 14 42 5 0 0 -42 -10 -92z m-300 21 l22 -51
-23 -34 c-24 -36 -33 -40 -43 -24 -4 6 -10 8 -14 6 -4 -3 -12 18 -18 46 -9 46
-8 52 14 79 14 16 28 29 33 29 4 0 17 -23 29 -51z m-85 -84 c6 -42 4 -53 -13
-72 -18 -18 -19 -28 -12 -75 7 -43 6 -56 -7 -71 -19 -21 -29 -13 -37 33 -4 24
0 46 12 70 14 27 16 43 9 72 -7 28 -5 48 9 84 21 54 27 47 39 -41z m154 22 c6
-7 16 -33 23 -58 11 -41 10 -48 -12 -81 -33 -51 -64 -47 -84 11 -19 57 -20 51
15 99 32 45 41 49 58 29z m154 -29 c5 -48 -9 -116 -27 -136 -9 -10 -14 -5 -23
27 -11 34 -10 47 9 95 11 31 24 56 29 56 4 0 10 -19 12 -42z m-372 -34 c0 -48
-14 -84 -32 -84 -10 0 -3 113 8 132 12 19 24 -6 24 -48z m130 -59 l22 -65 -24
-29 c-26 -33 -38 -38 -38 -16 0 8 -6 15 -14 15 -13 0 -26 41 -26 82 0 22 36
78 50 78 5 0 18 -29 30 -65z m169 17 c22 -41 23 -88 2 -122 -28 -47 -53 -48
-74 -4 -18 38 -16 46 27 111 24 38 32 40 45 15z m-8300 -41 c0 -9 -6 -34 -13
-56 l-13 -40 -12 28 c-15 38 -14 104 2 110 15 6 37 -21 36 -42z m-78 -58 c1
-42 2 -44 9 -18 l7 30 11 -28 c7 -16 12 -47 11 -70 l-1 -42 -11 38 c-7 22 -15
36 -19 32 -10 -10 -28 39 -28 76 0 49 20 32 21 -18z m125 25 c4 -79 14 -108
27 -75 3 6 6 8 6 2 0 -5 -4 -17 -9 -25 -8 -13 -14 -10 -39 15 -27 26 -30 35
-24 68 6 42 37 54 39 15z m7932 -33 c4 -41 -15 -98 -30 -93 -12 4 -12 6 -4 79
8 68 29 77 34 14z m372 -11 c0 -54 -20 -112 -41 -117 -31 -8 -32 36 -2 98 15
30 31 55 35 55 4 0 8 -16 8 -36z m-8197 -30 c5 -21 13 -47 19 -57 17 -34 -2
-31 -39 5 -34 35 -35 38 -23 68 16 40 33 34 43 -16z m7797 -119 c0 -74 -25
-127 -45 -95 -6 9 4 68 22 133 10 36 23 15 23 -38z m-32 -160 c3 -36 -14 -95
-27 -95 -26 1 -29 18 -14 78 17 69 36 77 41 17z m369 -34 c-7 -62 -26 -101
-48 -101 -29 0 -27 40 3 103 34 68 53 67 45 -2z m-6 -161 c-12 -33 -21 -67
-21 -75 0 -8 -9 -34 -19 -58 -11 -23 -22 -58 -26 -77 -9 -48 -26 -90 -36 -90
-16 0 -10 47 13 97 11 26 20 56 19 66 -1 10 7 38 18 63 12 24 21 48 21 54 0 5
4 10 9 10 4 0 6 11 4 25 -3 13 3 45 13 70 l19 45 3 -35 c2 -20 -6 -63 -17 -95z
m-400 40 c-3 -51 -27 -86 -46 -70 -18 15 13 122 34 118 12 -2 15 -14 12 -48z
m365 -30 c-8 -48 -36 -111 -47 -104 -5 3 -22 -14 -39 -37 -39 -55 -66 -58 -75
-11 -6 31 -2 39 31 73 41 42 53 42 55 1 1 -23 2 -21 8 9 8 41 48 109 63 109 7
0 8 -15 4 -40z m-242 -23 c29 -71 29 -72 -11 -103 -23 -18 -38 -24 -41 -16 -2
7 -10 12 -17 12 -8 0 -14 16 -17 46 -3 40 0 48 27 69 39 31 42 31 59 -8z m-95
-79 c1 -27 -5 -41 -21 -52 -17 -12 -24 -13 -30 -3 -15 23 -8 79 14 110 l22 31
7 -24 c4 -14 7 -42 8 -62z m-77 -3 c-4 -55 -24 -84 -46 -66 -12 10 -10 21 8
66 11 30 26 53 31 52 6 -2 8 -26 7 -52z m243 -55 c5 -30 2 -39 -23 -63 -18
-17 -32 -24 -36 -18 -4 5 -13 8 -20 5 -8 -3 -16 4 -20 19 -3 14 -9 32 -12 41
-4 11 8 24 42 46 53 33 57 31 69 -30z m125 15 c0 -34 -37 -105 -54 -105 -7 0
-24 -16 -37 -35 -13 -19 -30 -33 -36 -30 -15 5 -17 -11 -3 -20 19 -12 11 -61
-14 -84 -20 -19 -28 -21 -45 -12 -30 17 -26 53 9 79 27 20 28 24 18 53 -10 28
-8 33 28 70 45 46 54 48 55 12 1 -21 2 -23 6 -8 6 26 56 105 66 105 4 0 7 -11
7 -25z m-7979 -80 c6 -25 15 -42 20 -39 5 3 9 -6 9 -20 0 -33 -13 -33 -39 0
-22 28 -30 104 -11 104 5 0 15 -20 21 -45z m7571 -11 c4 -52 -8 -68 -45 -59
l-25 7 21 53 c25 63 44 62 49 -1z m-7656 -11 c7 -10 14 -34 15 -53 1 -28 3
-30 6 -10 13 68 63 21 63 -59 0 -28 -4 -51 -9 -51 -5 0 -18 19 -30 43 -12 23
-21 34 -21 24 0 -10 -4 -16 -10 -12 -5 3 -4 -8 2 -27 15 -44 22 -51 14 -13 -6
28 -5 29 9 11 16 -21 49 -125 42 -133 -3 -2 -13 16 -23 41 -16 37 -21 43 -34
33 -8 -6 -12 -8 -8 -3 4 5 0 22 -9 39 -22 44 -33 87 -22 87 5 0 9 -5 9 -12 0
-6 2 -9 5 -6 3 2 1 18 -4 34 -25 78 -23 103 5 67z m227 -77 c19 2 23 -11 7
-21 -12 -7 -100 51 -100 66 0 6 5 7 10 4 6 -3 10 0 10 9 0 32 26 21 41 -18 10
-27 21 -41 32 -40z m7797 25 c0 -32 -29 -73 -53 -77 -26 -4 -21 42 9 82 29 38
44 36 44 -5z m-6915 -31 c-10 -11 -25 -20 -34 -19 -10 0 -8 4 7 9 12 5 25 17
28 25 4 9 9 13 12 10 3 -2 -3 -14 -13 -25z m-305 -22 c0 -14 -19 1 -31 25 -12
22 -12 22 10 3 11 -11 21 -23 21 -28z m6820 14 c0 -32 -16 -52 -41 -52 -25 0
-30 13 -18 49 8 23 17 31 35 31 20 0 24 -5 24 -28z m350 -89 c-10 -58 -26 -82
-50 -76 -28 7 -25 33 8 76 36 48 51 48 42 0z m-388 17 c14 0 2 -62 -14 -71
-13 -8 -48 7 -48 21 0 5 5 21 10 35 7 19 15 25 26 21 9 -3 20 -6 26 -6z m306
-69 c4 -38 -20 -71 -52 -71 -13 0 -16 -3 -10 -8 7 -4 14 -16 17 -27 4 -19 5
-19 6 1 1 18 58 74 75 74 3 0 6 -15 6 -33 0 -23 -8 -41 -28 -60 -16 -15 -31
-24 -35 -21 -3 3 -18 -2 -34 -13 -36 -25 -69 -19 -77 13 -5 19 -1 30 16 44 13
11 26 19 30 20 3 0 4 17 1 38 -4 33 -1 39 29 59 42 27 52 25 56 -16z m-6868 4
c13 -14 19 -25 13 -25 -5 0 -20 11 -33 25 -13 14 -19 25 -13 25 5 0 20 -11 33
-25z m-950 -79 c11 -33 18 -61 16 -64 -3 -2 -8 8 -12 23 -5 20 -9 24 -16 13
-8 -10 -9 -9 -4 4 3 10 -1 33 -9 52 -17 41 -19 54 -5 40 5 -5 19 -36 30 -68z
m764 35 c-6 -6 -34 20 -34 32 0 6 8 2 19 -9 10 -10 17 -21 15 -23z m6709 -19
c-7 -43 -20 -55 -45 -41 -22 12 -22 20 -3 65 12 30 17 34 34 24 16 -8 19 -17
14 -48z m-6767 20 c-4 -3 -14 2 -24 12 -16 18 -16 18 6 6 13 -6 21 -14 18 -18z
m215 -15 c10 -18 6 -17 -20 7 -36 34 -39 41 -11 26 11 -6 25 -20 31 -33z
m-672 -50 c20 -45 24 -49 31 -32 7 16 9 17 9 3 1 -27 -15 -30 -53 -7 -37 22
-40 28 -30 67 9 33 16 27 43 -31z m611 9 c22 -27 -5 -17 -31 10 -21 24 -22 26
-3 16 11 -6 26 -18 34 -26z m165 -14 c-3 -3 -11 0 -18 7 -9 10 -8 11 6 5 10
-3 15 -9 12 -12z m-221 -21 c-2 -3 -12 3 -22 13 -16 17 -16 18 5 5 12 -7 20
-15 17 -18z m6619 13 c12 -4 13 -13 5 -45 -11 -43 -15 -45 -40 -25 -15 11 -16
17 -6 44 13 33 17 36 41 26z m-6565 -29 c-3 -3 -9 2 -12 12 -6 14 -5 15 5 6 7
-7 10 -15 7 -18z m6952 -34 c0 -10 -12 -26 -26 -36 -22 -14 -28 -15 -35 -4
-15 24 -10 38 18 53 32 16 43 13 43 -13z m-6839 2 c13 -16 12 -17 -3 -4 -17
13 -22 21 -14 21 2 0 10 -8 17 -17z m-880 -80 c20 -46 35 -60 19 -17 -6 14
-10 33 -10 42 0 14 2 13 13 -3 23 -34 47 -113 35 -117 -7 -3 -3 -22 10 -51 12
-26 17 -47 13 -47 -13 0 -42 80 -37 99 3 9 1 23 -4 31 -5 8 -10 11 -10 6 0 -5
-7 -3 -15 4 -11 9 -10 2 5 -31 11 -24 19 -51 19 -59 0 -8 -14 14 -30 48 -16
35 -27 68 -24 73 3 4 -3 26 -15 48 -11 22 -20 44 -20 48 1 14 32 -31 51 -74z
m227 26 c13 -24 29 -47 35 -51 26 -16 -15 -7 -51 11 -35 18 -38 22 -34 56 5
46 20 41 50 -16z m572 19 c0 -12 -6 -9 -26 13 -19 22 -19 22 4 8 12 -8 22 -17
22 -21z m6506 -21 c-3 -12 -6 -27 -6 -34 0 -7 -9 -17 -21 -24 -35 -18 -44 3
-24 55 16 40 20 44 37 35 14 -8 18 -17 14 -32z m434 28 c0 -4 -7 -19 -15 -35
-10 -19 -20 -27 -30 -24 -22 9 -18 29 8 47 23 17 37 21 37 12z m-6957 -45 c3
-11 2 -18 -3 -15 -4 3 -10 14 -13 25 -3 11 -2 18 3 15 4 -3 10 -14 13 -25z
m132 10 c10 -11 16 -20 13 -20 -3 0 -13 9 -23 20 -10 11 -16 20 -13 20 3 0 13
-9 23 -20z m750 0 c4 -7 -3 -8 -22 -4 -38 9 -42 14 -10 14 14 0 29 -5 32 -10z
m-1562 -28 c9 -10 19 -44 22 -77 l7 -60 -30 35 c-31 36 -46 79 -36 105 8 20
17 19 37 -3z m96 -70 c10 -25 16 -30 22 -20 6 8 9 -2 9 -29 0 -24 -4 -43 -10
-43 -5 0 -25 14 -45 31 -40 35 -47 79 -18 112 17 18 18 18 24 0 3 -10 11 -33
18 -51z m655 43 c11 -8 15 -15 10 -15 -6 0 -19 7 -30 15 -10 8 -14 14 -9 14 6
0 19 -6 29 -14z m6544 -33 c2 -33 -1 -43 -17 -52 -17 -8 -25 -6 -41 10 -27 27
-22 61 10 77 36 18 45 12 48 -35z m302 37 c0 -17 -40 -79 -51 -79 -16 0 -10
31 12 61 21 30 39 38 39 18z m-456 -15 c20 -8 21 -57 2 -73 -11 -9 -20 -10
-35 -1 -20 10 -20 12 -4 45 9 19 18 35 19 35 1 0 9 -3 18 -6z m-6950 -66 c25
-44 30 -49 37 -32 7 18 8 17 8 -3 1 -27 -7 -28 -53 -7 -30 15 -35 22 -38 59
-4 54 9 49 46 -17z m576 8 c0 -12 -5 -7 -19 24 -11 24 -11 24 3 6 9 -11 16
-24 16 -30z m-749 -70 c6 -23 21 -57 33 -76 12 -19 35 -62 49 -95 l27 -60 -30
35 c-38 43 -39 31 -2 -23 42 -62 48 -75 20 -47 -35 35 -72 100 -58 100 6 0 10
6 8 13 -3 6 -11 12 -19 12 -16 0 -63 80 -56 98 3 6 17 -13 31 -43 15 -30 24
-44 21 -30 -3 14 -7 30 -8 36 -2 7 -8 18 -15 26 -16 19 -52 100 -52 117 0 29
40 -22 51 -63z m1739 64 c-8 -5 -19 -10 -25 -10 -5 0 -3 5 5 10 8 5 20 10 25
10 6 0 3 -5 -5 -10z m5592 -51 c4 -24 0 -33 -21 -43 -21 -12 -29 -11 -48 1
-35 23 -30 61 10 78 38 16 53 7 59 -36z m-6458 25 c3 -8 2 -12 -4 -9 -6 3 -10
10 -10 16 0 14 7 11 14 -7z m6226 -29 c0 -14 -9 -34 -21 -46 -19 -19 -22 -19
-39 -4 -17 15 -17 18 3 55 18 31 25 37 39 29 10 -5 18 -21 18 -34z m128 2 c4
-47 -22 -62 -50 -28 -33 41 -20 72 27 68 15 -2 21 -10 23 -40z m296 16 c-7
-31 -81 -107 -104 -108 -8 0 -18 4 -22 10 -5 6 -8 4 -8 -6 0 -20 -45 -45 -74
-41 -12 2 -34 -2 -49 -7 -39 -15 -67 4 -67 45 0 24 5 33 23 38 39 10 45 7 55
-31 9 -33 10 -35 11 -11 1 21 10 32 40 48 34 17 41 18 51 5 11 -13 17 -12 47
11 29 22 37 24 44 13 5 -8 9 -9 9 -3 0 12 38 64 46 64 2 0 1 -12 -2 -27z
m-7267 -101 l32 -57 2 50 1 50 9 -50 c4 -27 4 -54 0 -58 -5 -5 -30 2 -56 15
-44 23 -47 27 -49 66 -3 61 22 55 61 -16z m6933 -6 c0 -39 -3 -44 -26 -49 -63
-12 -78 63 -19 88 40 16 45 12 45 -39z m-150 -6 c0 -39 -24 -57 -46 -35 -16
16 -16 19 1 51 14 27 21 31 32 23 7 -6 13 -24 13 -39z m359 -86 c-17 -18 -26
-21 -40 -13 -32 17 -23 52 19 76 l37 21 3 -30 c2 -21 -4 -38 -19 -54z m-7135
-7 c9 -47 7 -87 -5 -87 -18 0 -78 40 -88 58 -4 10 -11 29 -15 44 -5 22 -3 25
14 21 14 -4 20 0 20 11 0 14 3 14 34 -1 24 -11 36 -24 40 -46z m6730 6 c-11
-31 -32 -36 -47 -12 -8 13 -6 24 7 44 16 25 19 26 34 11 12 -12 14 -22 6 -43z
m-6633 14 c20 -16 28 -35 33 -69 3 -27 2 -48 -3 -48 -5 0 -30 9 -55 20 -30 12
-46 26 -46 37 0 10 -3 28 -6 41 -5 18 -2 22 15 22 11 0 21 5 21 10 0 16 13 12
41 -13z m7074 -44 l-5 -58 20 25 c20 25 20 20 -1 -35 -6 -16 -13 -41 -15 -54
-4 -35 -13 -53 -22 -47 -5 3 -14 -11 -21 -30 -11 -32 -31 -47 -31 -24 0 21 31
83 48 96 15 12 15 13 1 14 -9 0 -22 -13 -29 -30 -14 -34 -30 -40 -30 -11 0 11
15 31 33 45 19 15 26 26 17 26 -8 0 -21 -9 -28 -20 -13 -22 -42 -27 -42 -8 0
16 40 58 56 58 6 0 18 7 25 17 13 15 12 15 -11 2 -14 -8 -34 -21 -45 -30 -28
-23 -53 -20 -58 8 -3 18 3 29 25 44 16 12 35 19 42 16 8 -3 26 8 42 24 15 16
29 29 30 29 2 0 1 -26 -1 -57z m-6972 -62 c20 -13 35 -26 33 -28 -2 -3 -23 8
-45 23 -34 22 -41 32 -40 58 l1 31 7 -30 c4 -20 19 -38 44 -54z m6474 62 c5
-13 -25 -26 -38 -17 -6 3 -5 11 2 20 13 16 31 14 36 -3z m56 -62 c-10 -38 -29
-37 -26 2 1 34 26 69 31 45 2 -9 -1 -30 -5 -47z m-101 13 c-8 -41 -44 -58 -70
-32 -9 9 -4 17 21 34 37 26 54 25 49 -2z m64 10 c-3 -9 -6 -19 -6 -24 0 -11
-29 -40 -41 -40 -15 0 -10 47 7 64 21 21 48 21 40 0z m-6633 -25 c36 -17 65
-129 34 -129 -26 0 -92 57 -104 89 -10 27 -10 32 2 27 7 -2 19 2 25 10 15 17
13 17 43 3z m6496 -33 c15 -17 -1 -61 -26 -75 -14 -7 -25 -5 -43 9 l-25 19 29
30 c33 34 48 38 65 17z m144 -33 c-3 -25 -3 -26 6 -6 11 24 45 46 55 36 3 -3
6 -24 6 -45 0 -31 4 -38 19 -38 18 0 31 -25 31 -61 0 -9 -12 -21 -26 -28 -23
-10 -26 -9 -31 9 -3 13 -11 19 -19 16 -10 -4 -14 3 -14 20 0 13 7 27 15 31 12
4 9 9 -12 20 -21 11 -33 12 -52 3 -19 -9 -27 -8 -38 3 -18 18 -7 44 26 61 33
18 39 14 34 -21z m-6655 -54 c18 -14 32 -40 43 -80 9 -32 13 -59 10 -59 -11 0
-77 73 -90 98 -11 21 -7 62 6 62 2 0 17 -9 31 -21z m6437 5 c23 -15 23 -17 8
-48 -17 -36 -63 -69 -85 -61 -7 3 -19 15 -26 26 -12 18 -9 24 30 59 24 22 44
39 46 40 1 0 14 -7 27 -16z m85 -2 c0 -21 -22 -77 -36 -93 -16 -18 -18 -18
-29 -2 -16 22 -1 67 28 88 24 16 37 19 37 7z m70 -9 c-1 -58 -32 -82 -61 -47
-11 14 -10 20 14 40 33 28 47 30 47 7z m-6451 -29 c9 -7 28 -125 19 -130 -5
-3 -28 6 -52 20 -35 20 -45 33 -50 61 -4 20 -10 44 -13 52 -4 11 -2 14 5 9 6
-3 17 0 24 7 12 14 22 11 67 -19z m6181 -49 c10 -12 9 -20 -4 -40 -19 -29 -24
-30 -54 -9 -29 20 -28 30 6 48 34 19 37 19 52 1z m210 -2 c-1 -10 -9 -33 -19
-51 l-18 -34 -26 32 c-16 18 -27 25 -27 17 0 -18 -35 -28 -49 -14 -7 7 -3 16
14 28 30 24 40 24 52 -3 9 -21 10 -21 32 10 25 35 41 41 41 15z m288 -5 c19
-19 15 -85 -5 -92 -9 -4 -21 -2 -27 4 -5 5 -20 10 -33 10 -13 0 -23 6 -23 14
0 8 -2 21 -5 28 -4 9 7 20 27 30 41 20 51 21 66 6z m-588 -32 c0 -23 -26 -37
-56 -30 l-27 7 34 18 c41 22 49 23 49 5z m835 -93 c-3 -18 -10 -33 -14 -33 -5
0 -8 -23 -7 -51 1 -34 -3 -53 -11 -56 -8 -3 -13 4 -13 19 0 13 -5 29 -11 35
-9 9 -6 19 10 42 12 17 20 42 19 58 -1 16 5 45 13 64 l14 34 3 -40 c2 -21 1
-54 -3 -72z m-6806 -26 c8 -31 12 -60 8 -63 -13 -13 -89 47 -103 82 -13 30
-12 36 3 53 17 17 20 17 48 2 23 -13 32 -29 44 -74z m5871 81 c0 -27 -18 -41
-44 -34 -33 8 -34 26 -2 26 14 0 28 5 31 10 8 14 15 13 15 -2z m-5790 -72 c37
-34 39 -35 43 -13 2 13 5 6 6 -17 1 -37 0 -38 -26 -33 -62 12 -82 26 -92 62
-8 30 -7 39 7 53 16 16 17 16 20 1 2 -9 21 -33 42 -53z m6540 30 c0 -48 -17
-70 -46 -59 -44 16 -44 50 -1 81 17 12 35 22 39 22 5 0 8 -20 8 -44z m-6545
16 c-3 -3 -11 0 -18 7 -9 10 -8 11 6 5 10 -3 15 -9 12 -12z m5715 -17 c0 -22
-3 -24 -19 -16 -31 17 -34 41 -6 41 20 0 25 -5 25 -25z m-60 -12 c0 -21 -3
-24 -9 -14 -5 8 -7 20 -4 28 8 21 13 15 13 -14z m982 -32 c1 -40 -19 -78 -44
-84 -17 -5 -19 -2 -14 16 3 12 6 29 6 38 0 18 39 73 47 66 2 -3 5 -19 5 -36z
m-6437 11 c-3 -3 -11 0 -18 7 -9 10 -8 11 6 5 10 -3 15 -9 12 -12z m6366 -84
c-9 -29 -17 -38 -34 -38 -21 0 -23 4 -19 38 3 25 13 44 31 59 l26 21 3 -21 c2
-12 -1 -38 -7 -59z m-911 53 c0 -8 -19 -37 -21 -31 -6 33 -4 47 8 43 7 -3 13
-8 13 -12z m-5735 -90 c14 -30 23 -56 21 -59 -8 -7 -75 49 -98 80 -16 23 -18
32 -8 38 7 4 9 13 5 20 -4 7 6 4 24 -6 20 -12 40 -38 56 -73z m82 52 c17 -4
26 -18 38 -60 9 -30 14 -57 12 -59 -2 -2 -25 4 -52 13 -36 14 -51 26 -64 52
-12 26 -13 35 -3 38 6 3 12 12 12 20 0 11 5 13 18 8 9 -4 27 -10 39 -12z m118
-55 c33 -37 42 -43 39 -26 -4 21 -4 22 5 3 23 -48 11 -54 -55 -29 -31 12 -44
23 -49 43 -3 14 -8 33 -11 42 -9 32 28 15 71 -33z m6555 33 c0 -31 -22 -82
-34 -78 -12 4 -21 61 -12 83 8 21 46 18 46 -5z m-5220 -42 c11 -6 8 -8 -12 -9
-35 0 -59 10 -52 21 6 10 36 4 64 -12z m360 -50 c0 -6 -4 -7 -10 -4 -5 3 -10
11 -10 16 0 6 5 7 10 4 6 -3 10 -11 10 -16z m-1821 -3 c20 -11 79 -126 65
-126 -12 0 -76 55 -94 81 -11 15 -17 34 -14 43 7 19 12 19 43 2z m118 -6 c24
-9 34 -21 49 -65 10 -30 15 -57 12 -61 -8 -8 -95 25 -106 40 -5 6 -14 25 -19
42 -9 25 -8 33 6 42 21 14 22 14 58 2z m6219 -20 c24 -9 29 -15 28 -43 0 -18
-6 -42 -11 -52 -10 -18 -12 -18 -44 1 -24 14 -35 30 -40 54 -4 19 -5 38 -3 42
7 11 35 10 70 -2z m137 -22 c11 -14 16 -31 13 -37 -9 -14 -103 -15 -111 -1
-11 17 5 51 28 60 32 13 47 8 70 -22z m-237 12 c19 0 28 -44 14 -69 -12 -24
-48 -28 -72 -8 -15 11 -15 15 -1 50 11 26 20 36 30 33 8 -3 21 -6 29 -6z m312
-42 c28 -28 7 -80 -29 -71 -27 7 -34 41 -13 64 20 22 26 23 42 7z m-6430 -52
c24 -13 93 -116 77 -116 -12 0 -104 66 -114 82 -10 15 -6 48 6 48 2 0 16 -6
31 -14z m6430 -83 c-39 -40 -49 -28 -18 22 18 29 25 34 36 24 13 -10 10 -17
-18 -46z m-4674 -32 c24 -27 17 -27 -28 0 -20 12 -33 25 -30 30 7 11 33 -2 58
-30z m-1692 -23 c27 -28 47 -57 44 -64 -7 -17 5 -26 20 -13 9 7 24 -2 58 -38
43 -45 64 -80 31 -53 -9 7 -18 10 -22 6 -3 -3 -2 -6 4 -6 17 0 75 -58 68 -69
-3 -6 -11 -9 -16 -5 -5 3 -7 9 -4 14 3 4 -11 20 -30 35 -20 14 -33 30 -31 34
3 4 -10 23 -29 41 -39 38 -48 31 -13 -9 13 -14 -3 -2 -34 28 -32 30 -55 57
-53 61 2 4 -11 22 -30 40 -19 19 -35 38 -35 42 0 20 28 4 72 -44z m6188 37
c71 -37 42 -135 -40 -135 -30 0 -43 6 -59 26 -25 32 -26 47 -4 85 15 24 26 31
66 38 4 0 21 -6 37 -14z m125 5 c3 -5 -2 -21 -10 -34 -9 -14 -29 -57 -45 -96
-18 -49 -29 -66 -34 -55 -3 9 4 35 15 57 15 30 20 53 16 84 -3 27 0 45 7 48
20 8 45 6 51 -4z m-6251 -20 c24 -9 84 -106 72 -117 -7 -7 -78 45 -99 73 -9
12 -14 30 -11 38 7 19 6 19 38 6z m6276 -35 c0 -8 4 -15 10 -15 12 0 4 -23
-28 -78 -28 -50 -43 -50 -17 0 39 74 43 84 24 73 -6 -4 -22 -34 -36 -66 -40
-91 -52 -71 -14 24 6 15 15 38 21 52 10 27 40 34 40 10z m-338 -42 c35 -31 17
-83 -28 -83 -52 0 -66 29 -48 97 5 19 9 20 32 12 15 -6 35 -18 44 -26z m-3827
1 c9 -15 12 -23 6 -20 -11 7 -35 46 -28 46 3 0 12 -12 22 -26z m-285 -19 c0
-5 -5 -3 -10 5 -5 8 -10 20 -10 25 0 6 5 3 10 -5 5 -8 10 -19 10 -25z m244
-95 c13 -19 27 -46 31 -60 4 -15 -4 -7 -20 20 -15 25 -35 54 -44 65 -10 11
-26 34 -36 50 -17 28 -16 28 13 -5 17 -19 42 -51 56 -70z m-1733 81 c-19 -12
-8 -25 44 -54 28 -16 45 -21 46 -14 0 7 5 2 11 -11 16 -32 5 -37 -57 -23 -48
11 -58 17 -74 49 -19 36 -19 36 3 48 24 14 48 18 27 5z m-93 -9 c23 -7 88
-107 74 -115 -4 -2 -31 3 -61 11 -40 11 -58 23 -72 46 -16 27 -17 32 -4 39 9
4 13 12 10 18 -7 10 18 10 53 1z m2516 -82 c14 -52 14 -70 5 -93 l-12 -29 -14
32 c-7 18 -13 47 -13 65 0 33 11 98 15 93 2 -2 10 -32 19 -68z m3249 29 c21
-25 25 -35 16 -45 -16 -19 -23 -18 -59 12 -29 25 -30 27 -14 45 22 25 25 24
57 -12z m-4788 -30 c9 -16 14 -29 13 -29 -2 0 -25 11 -52 25 -27 14 -44 25
-37 25 7 0 21 -5 33 -11 26 -14 35 -4 17 18 -9 11 -10 14 -1 9 6 -4 19 -20 27
-37z m952 8 c4 -6 8 -18 9 -25 2 -10 -1 -10 -11 -2 -8 7 -13 17 -12 23 1 7 -3
11 -10 10 -6 -1 -14 4 -17 13 -4 12 -2 12 14 4 10 -5 22 -16 27 -23z m3213 23
c0 -5 -7 -25 -16 -43 -12 -25 -23 -34 -40 -34 l-23 0 30 43 c28 42 49 56 49
34z m240 6 c0 -2 -11 -11 -25 -20 -14 -9 -25 -13 -25 -8 0 5 10 14 23 20 27
13 27 13 27 8z m578 -46 c-13 -20 -28 -27 -28 -12 0 10 22 32 32 32 5 0 3 -9
-4 -20z m-5968 -74 c24 -25 38 -46 31 -46 -10 0 -9 -6 5 -22 15 -17 11 -16
-24 7 -23 15 -40 30 -37 33 2 3 11 -1 20 -8 9 -7 18 -10 21 -7 3 3 -4 11 -16
17 -30 16 -100 80 -100 91 0 17 54 -19 100 -65z m1940 7 c0 -3 -9 2 -20 12
-11 10 -20 28 -20 39 0 17 4 15 20 -12 11 -18 20 -35 20 -39z m3977 20 c-3 -3
-24 -9 -47 -14 -34 -8 -48 -6 -67 6 -20 14 -22 19 -12 32 10 11 25 14 55 10
23 -2 48 -1 56 4 9 6 14 2 16 -12 2 -11 1 -23 -1 -26z m-5821 -44 c13 -27 21
-49 18 -49 -14 0 -81 45 -106 72 -44 46 -38 60 17 41 39 -13 50 -23 71 -64z
m734 66 c0 -8 -2 -15 -4 -15 -2 0 -6 7 -10 15 -3 8 -1 15 4 15 6 0 10 -7 10
-15z m1436 -15 c40 -10 82 -24 93 -29 37 -20 43 -7 11 27 -17 18 -18 22 -5 22
8 0 24 -9 34 -19 11 -11 22 -17 25 -14 12 12 36 -21 36 -48 l0 -30 -31 17
c-26 13 -33 14 -40 2 -7 -11 -9 -11 -9 1 0 34 -83 55 -120 31 -16 -10 -17 -10
52 -14 30 -2 58 -22 58 -42 0 -12 -8 -11 -37 4 -45 23 -117 45 -193 61 -74 15
-102 35 -40 27 50 -6 77 5 65 25 -6 9 -3 11 10 5 10 -3 51 -15 91 -26z m-1036
-117 c0 -6 -104 37 -114 48 -6 6 3 4 21 -5 45 -22 47 -20 22 17 -19 28 -16 26
24 -13 26 -24 47 -45 47 -47z m3900 83 c0 -20 -47 -77 -66 -82 -38 -10 -42 5
-9 29 16 12 37 30 45 39 14 16 30 23 30 14z m94 -27 c-33 -35 -100 -75 -75
-45 7 9 25 22 39 29 13 6 24 16 23 21 -3 9 18 26 33 26 6 0 -3 -14 -20 -31z
m-3177 -50 c11 0 13 -3 5 -6 -17 -7 -58 21 -73 49 -9 16 -3 13 18 -9 17 -18
39 -33 50 -34z m-636 5 c13 -16 12 -16 -7 -6 -11 6 -27 19 -35 28 -13 16 -12
16 7 6 11 -6 27 -19 35 -28z m-1280 -36 c32 -28 57 -53 55 -56 -8 -7 -69 34
-105 72 -52 54 -18 43 50 -16z m42 43 c28 -11 104 -104 89 -109 -31 -10 -145
77 -135 104 6 17 13 17 46 5z m5521 -55 c-9 -29 -9 -29 -41 -19 -22 7 -29 17
-31 41 l-3 31 41 -16 c34 -14 39 -20 34 -37z m-839 5 c-14 -29 -35 -49 -35
-36 0 9 40 65 46 65 2 0 -2 -13 -11 -29z m238 -7 c-16 -21 -103 -71 -103 -59
0 2 20 16 44 30 24 14 50 32 56 40 21 25 23 17 3 -11z m770 -9 c-9 -19 -21
-35 -25 -35 -9 0 6 34 25 58 17 22 17 13 0 -23z m-43 10 c11 -13 9 -20 -10
-40 -13 -14 -33 -26 -44 -26 -18 -1 -19 -2 -3 -6 10 -3 27 3 38 13 10 9 19 12
19 6 0 -6 -14 -19 -31 -28 -26 -13 -33 -14 -40 -2 -13 19 -11 28 6 28 8 0 15
9 15 20 0 11 -4 20 -10 20 -5 0 -14 -9 -20 -20 -6 -11 -15 -20 -21 -20 -6 0
-3 10 5 22 19 26 21 47 4 30 -16 -16 -29 -15 -22 2 7 19 98 20 114 1z m-4260
-98 c0 -5 -6 -5 -13 1 -7 6 -35 20 -62 32 -43 18 -45 20 -16 15 28 -4 32 -2
26 13 -3 9 10 2 29 -17 20 -19 36 -39 36 -44z m-1082 51 c19 -19 14 -32 -5
-17 -16 13 -17 12 -4 -3 7 -10 17 -15 22 -13 4 3 15 -8 24 -24 8 -16 11 -32 7
-35 -18 -11 -98 16 -122 42 -24 24 -24 28 -10 43 18 20 71 24 88 7z m949 6
c-3 -3 -12 -4 -19 -1 -8 3 -5 6 6 6 11 1 17 -2 13 -5z m-1233 -27 c43 -32 66
-43 37 -18 -13 12 -21 24 -18 28 7 7 79 -40 99 -65 11 -13 8 -12 -19 2 -28 14
-32 14 -27 1 5 -13 0 -12 -27 4 -44 27 -97 70 -85 71 5 0 23 -10 40 -23z m186
-33 c24 -24 41 -46 38 -49 -18 -18 -138 62 -138 92 0 25 54 2 100 -43z m383
41 c-3 -9 -8 -14 -10 -11 -3 3 -2 9 2 15 9 16 15 13 8 -4z m4076 -34 c-12 -17
-25 -29 -27 -26 -5 5 41 64 46 59 2 -1 -6 -16 -19 -33z m-4226 -49 c-2 -7 1
-11 6 -9 5 1 21 -14 36 -33 30 -40 21 -47 -42 -35 -32 6 -109 65 -84 65 6 0
11 8 11 18 0 16 5 18 38 12 21 -3 36 -11 35 -18z m-297 -7 c22 -17 38 -20 29
-5 -13 22 43 -3 99 -42 46 -33 41 -36 -14 -8 -21 11 -45 18 -52 15 -7 -3 -33
8 -58 25 -25 16 -40 30 -34 30 5 0 19 -7 30 -15z m219 -43 c18 -20 32 -38 31
-40 -5 -4 -84 27 -110 43 -14 10 -26 24 -26 32 0 28 67 6 105 -35z m56 -82
l34 -30 -30 11 c-40 14 -95 48 -95 59 0 15 55 -9 91 -40z m94 2 c40 -44 29
-50 -40 -21 -27 11 -65 45 -65 57 0 19 81 -8 105 -36z m-120 -24 c5 -5 5 -8
-1 -8 -12 0 -104 57 -104 65 0 6 87 -42 105 -57z m135 42 c6 -11 8 -20 6 -20
-3 0 -10 9 -16 20 -6 11 -8 20 -6 20 3 0 10 -9 16 -20z m3580 -20 c0 -17 -61
-59 -77 -53 -12 5 -8 10 18 22 22 11 33 23 31 34 -2 11 2 15 13 11 8 -3 15
-10 15 -14z m-3653 -51 c19 -12 32 -23 30 -26 -5 -4 -77 36 -77 43 0 8 14 3
47 -17z m3753 13 c0 -4 -13 -22 -29 -40 -23 -25 -38 -32 -65 -32 -50 0 -45 12
15 35 28 11 54 26 56 33 6 13 23 17 23 4z m-3696 -12 c23 -9 37 -40 18 -40
-13 0 -52 30 -52 41 0 11 3 11 34 -1z m3540 -48 c3 -5 -12 -26 -33 -46 -30
-29 -45 -37 -67 -34 -29 3 -28 4 16 27 64 34 74 42 58 52 -10 7 -9 9 4 9 9 0
19 -4 22 -8z m-3480 -17 c-4 -8 -8 -15 -10 -15 -2 0 -4 7 -4 15 0 8 4 15 10
15 5 0 7 -7 4 -15z m3606 -20 c0 -14 -81 -54 -120 -60 l-45 -7 65 35 c60 31
100 44 100 32z m-530 -34 c0 -13 -84 -71 -102 -71 -31 0 -21 35 16 55 19 11
33 22 31 25 -2 4 9 4 26 2 16 -2 29 -7 29 -11z m-2320 -2 c0 -8 -90 -22 -97
-15 -3 2 -2 9 1 14 6 10 96 11 96 1z m-95 -58 c-3 -6 -20 -11 -36 -11 l-30 0
16 30 c16 30 16 30 36 11 12 -11 18 -24 14 -30z m-622 -17 l-6 -39 -8 29 c-5
19 -4 35 3 43 16 19 18 12 11 -33z m2877 22 c0 -13 -86 -57 -107 -54 -37 4
-42 28 -6 28 15 1 39 7 53 15 23 13 60 20 60 11z m-2340 -41 c11 -13 8 -15
-19 -15 -30 0 -39 9 -24 23 11 11 30 8 43 -8z m113 -16 c20 -17 37 -35 37 -40
0 -16 -64 -9 -97 11 -38 23 -43 47 -10 53 12 2 24 5 27 6 3 0 22 -13 43 -30z
m2067 24 c0 -9 -56 -49 -82 -59 -11 -3 -18 -1 -18 5 0 6 -7 11 -15 11 -8 0
-12 6 -9 14 5 12 41 23 117 35 4 0 7 -2 7 -6z m-2349 -60 c-12 -20 -14 -14 -5
12 4 9 9 14 11 11 3 -2 0 -13 -6 -23z m199 2 c57 -29 64 -38 19 -25 -18 5 -35
8 -38 6 -3 -2 -20 7 -36 20 -41 33 -11 32 55 -1z m725 9 c39 -5 46 -4 40 7 -7
11 -5 11 9 -1 17 -13 16 -15 -20 -31 -48 -22 -88 -23 -103 -5 -14 16 -3 49 14
42 7 -2 34 -8 60 -12z m-1185 -29 c0 -5 -5 -3 -10 5 -5 8 -10 20 -10 25 0 6 5
3 10 -5 5 -8 10 -19 10 -25z m2667 29 c-3 -3 -12 -4 -19 -1 -8 3 -5 6 6 6 11
1 17 -2 13 -5z m31 -6 c-3 -7 -23 -26 -45 -42 -33 -22 -47 -27 -72 -21 -46 10
-38 22 27 41 31 9 61 20 67 25 13 13 27 11 23 -3z m-2303 -10 c28 -12 35 -34
8 -23 -10 4 -26 10 -35 12 -19 6 -25 23 -8 23 5 0 21 -5 35 -12z m1705 -8 c0
-25 -86 -61 -119 -49 -19 7 -21 12 -11 24 6 7 18 11 26 8 26 -10 86 7 80 22
-3 9 0 12 10 8 7 -3 14 -9 14 -13z m-366 -36 c-16 -13 -37 -27 -47 -30 -21 -7
-77 14 -77 28 0 5 -4 6 -10 3 -6 -3 -7 1 -4 9 3 9 9 15 12 14 4 0 33 0 65 1
40 1 56 5 51 12 -4 7 2 7 17 -1 l23 -13 -30 -23z m196 26 c0 -6 -21 -20 -47
-34 l-48 -24 -17 23 c-17 22 -17 23 27 35 24 7 48 9 54 5 6 -3 11 -1 11 5 0 6
5 8 10 5 6 -3 10 -10 10 -15z m-914 -9 c-5 -7 56 -22 103 -25 24 -2 23 -23 -1
-30 -38 -10 -67 -7 -93 10 -25 16 -35 54 -14 54 5 0 8 -4 5 -9z m214 -45 c52
-7 54 -6 35 9 l-20 16 20 -10 c11 -5 29 -16 40 -24 20 -16 17 -17 -70 -30 -5
-1 -25 4 -42 12 -23 9 -33 20 -33 35 0 12 3 16 8 10 4 -6 32 -14 62 -18z
m-1150 -8 c0 -5 -9 -4 -20 2 -11 6 -20 12 -20 14 0 2 9 2 20 -1 11 -3 20 -9
20 -15z m940 -8 c51 -26 51 -40 0 -40 -62 0 -125 38 -87 53 24 10 48 7 87 -13z
m1570 -10 c-44 -18 -121 -27 -106 -12 15 14 72 30 111 31 l40 0 -45 -19z
m-570 -4 c0 -8 -21 -22 -51 -31 -41 -14 -55 -15 -79 -5 -47 19 -27 39 43 43
34 2 68 4 75 5 6 1 12 -4 12 -12z m-1099 -12 c27 -9 48 -19 45 -21 -9 -9 -104
9 -123 23 -17 13 -17 13 5 14 13 0 46 -7 73 -16z m264 -1 c46 -22 44 -33 -4
-33 -41 0 -101 17 -101 29 0 26 54 28 105 4z m630 -15 c-59 -26 -129 -21 -118
9 5 12 18 14 69 8 45 -5 64 -3 64 5 0 6 5 8 12 4 8 -5 -2 -14 -27 -26z m865
22 c-14 -4 -36 -8 -50 -8 l-25 0 25 8 c14 4 36 8 50 8 l25 0 -25 -8z m-234 -9
c-7 -10 -95 -32 -124 -30 -9 0 1 9 23 20 41 19 111 26 101 10z m-1082 -26 l31
-13 -39 -7 c-44 -9 -107 4 -113 22 -8 24 61 23 121 -2z m-236 -14 c12 -8 3 -9
-33 -4 -72 9 -104 25 -37 19 28 -3 60 -10 70 -15z m1133 3 c-18 -8 -52 -14
-75 -12 l-41 3 45 12 c25 6 59 11 75 11 l30 0 -34 -14z m239 6 c-14 -4 -43 -8
-65 -8 l-40 1 45 7 c65 10 92 10 60 0z m-1490 -15 c25 -14 25 -14 -10 -8 -48
8 -73 22 -40 22 14 0 36 -6 50 -14z m1078 5 c10 0 12 -3 7 -9 -11 -10 -70 -15
-120 -11 -26 2 -23 4 20 15 28 7 56 11 63 9 8 -2 21 -4 30 -4z m-813 -19 l30
-9 -36 -1 c-45 -1 -99 9 -99 18 0 9 66 4 105 -8z m643 8 c36 -2 -35 -17 -85
-18 -63 -1 -72 14 -11 18 23 1 45 4 47 7 3 2 11 2 19 -1 7 -3 21 -5 30 -6z
m-713 -25 c6 -2 -14 -2 -44 1 -30 2 -59 9 -64 14 -8 8 86 -4 108 -15z m1125
16 c-14 -4 -41 -8 -60 -8 l-35 0 30 8 c17 4 44 8 60 8 29 0 29 0 5 -8z m-862
-20 c23 -14 -94 -5 -128 10 -20 8 -12 10 43 6 37 -3 75 -10 85 -16z m700 3
c-16 -2 -40 -2 -55 0 -16 2 -3 4 27 4 30 0 43 -2 28 -4z m-855 -10 c-7 -2 -21
-2 -30 0 -10 3 -4 5 12 5 17 0 24 -2 18 -5z m660 0 c-18 -2 -48 -2 -65 0 -18
2 -4 4 32 4 36 0 50 -2 33 -4z m-450 -20 c-18 -2 -48 -2 -65 0 -18 2 -4 4 32
4 36 0 50 -2 33 -4z"/>
<path d="M4948 9683 c7 -3 16 -2 19 1 4 3 -2 6 -13 5 -11 0 -14 -3 -6 -6z"/>
<path d="M5768 9683 c7 -3 16 -2 19 1 4 3 -2 6 -13 5 -11 0 -14 -3 -6 -6z"/>
<path d="M5848 9673 c7 -3 16 -2 19 1 4 3 -2 6 -13 5 -11 0 -14 -3 -6 -6z"/>
<path d="M6178 9623 c7 -3 16 -2 19 1 4 3 -2 6 -13 5 -11 0 -14 -3 -6 -6z"/>
<path d="M7130 9325 c14 -8 32 -14 40 -15 23 0 -2 17 -35 24 l-30 6 25 -15z"/>
<path d="M5900 9260 c0 -5 9 -10 19 -10 11 0 23 5 26 10 4 6 -5 10 -19 10 -14
0 -26 -4 -26 -10z"/>
<path d="M5976 9257 c2 -7 15 -13 27 -14 21 -2 21 -1 3 13 -24 17 -37 18 -30
1z"/>
<path d="M4639 9243 c-47 -20 -25 -35 31 -21 25 6 49 14 53 18 16 14 -52 16
-84 3z"/>
<path d="M6090 9240 c19 -4 44 -10 55 -14 13 -5 11 -2 -5 8 -14 8 -38 15 -55
14 -29 0 -29 0 5 -8z"/>
<path d="M6210 9204 c37 -8 88 -9 84 -2 -3 4 -26 7 -52 7 -26 -1 -40 -3 -32
-5z"/>
<path d="M6358 9173 c12 -2 30 -2 40 0 9 3 -1 5 -23 4 -22 0 -30 -2 -17 -4z"/>
<path d="M6517 9131 c23 -4 47 -11 55 -17 8 -5 5 -1 -5 9 -12 10 -33 17 -56
16 l-36 -2 42 -6z"/>
<path d="M6638 9083 c6 -2 18 -2 25 0 6 3 1 5 -13 5 -14 0 -19 -2 -12 -5z"/>
<path d="M6690 9076 c0 -2 7 -7 16 -10 8 -3 12 -2 9 4 -6 10 -25 14 -25 6z"/>
<path d="M3484 8929 c-3 -6 -25 -20 -48 -31 -40 -19 -40 -19 -8 -14 31 5 99
56 75 56 -7 0 -15 -5 -19 -11z"/>
<path d="M7180 8849 c0 -14 20 -20 36 -11 14 8 12 10 -10 14 -14 3 -26 2 -26
-3z"/>
<path d="M7243 8825 c0 -8 4 -12 8 -9 4 2 10 -2 12 -8 4 -8 6 -9 6 -2 1 6 -5
17 -12 23 -10 8 -14 7 -14 -4z"/>
<path d="M7310 8775 c0 -2 18 -14 40 -25 42 -21 53 -15 22 13 -17 15 -62 24
-62 12z m55 -15 c3 -6 -1 -7 -9 -4 -18 7 -21 14 -7 14 6 0 13 -4 16 -10z"/>
<path d="M2930 8669 l-35 -19 30 0 c19 0 35 7 43 20 15 24 8 24 -38 -1z"/>
<path d="M7425 8700 c4 -6 11 -8 16 -5 14 9 11 15 -7 15 -8 0 -12 -5 -9 -10z"/>
<path d="M7577 8609 c7 -7 15 -10 18 -7 3 3 -2 9 -12 12 -14 6 -15 5 -6 -5z"/>
<path d="M7648 8572 c9 -10 19 -17 21 -16 6 5 -20 34 -30 34 -5 0 -1 -8 9 -18z"/>
<path d="M2890 8545 c-7 -8 -8 -15 -2 -15 5 0 15 7 22 15 7 8 8 15 2 15 -5 0
-15 -7 -22 -15z"/>
<path d="M7998 8443 c7 -3 16 -2 19 1 4 3 -2 6 -13 5 -11 0 -14 -3 -6 -6z"/>
<path d="M7985 8320 c3 -5 8 -10 11 -10 2 0 4 5 4 10 0 6 -5 10 -11 10 -5 0
-7 -4 -4 -10z"/>
<path d="M8308 8293 c7 -3 16 -2 19 1 4 3 -2 6 -13 5 -11 0 -14 -3 -6 -6z"/>
<path d="M6587 8116 c-4 -10 -1 -13 9 -9 7 3 14 9 14 14 0 14 -17 10 -23 -5z"/>
<path d="M6519 8053 c-13 -16 -12 -17 4 -4 9 7 17 15 17 17 0 8 -8 3 -21 -13z"/>
<path d="M6410 8040 c0 -5 5 -10 11 -10 5 0 7 5 4 10 -3 6 -8 10 -11 10 -2 0
-4 -4 -4 -10z"/>
<path d="M6496 8013 c-6 -14 -5 -15 5 -6 7 7 10 15 7 18 -3 3 -9 -2 -12 -12z"/>
<path d="M6412 7975 c0 -16 2 -22 5 -12 2 9 2 23 0 30 -3 6 -5 -1 -5 -18z"/>
<path d="M6588 7910 c-15 -46 -8 -110 12 -110 6 0 10 3 10 8 0 4 3 18 6 32 4
19 3 22 -5 10 -16 -24 -21 -8 -10 39 14 61 5 75 -13 21z"/>
<path d="M9050 7644 c0 -3 13 -25 29 -48 17 -24 33 -56 37 -72 9 -36 48 -96
57 -87 12 11 8 23 -7 23 -8 0 -21 21 -30 46 -20 59 -86 165 -86 138z"/>
<path d="M9200 7403 c0 -4 5 -15 10 -23 8 -13 10 -13 10 2 0 9 -4 20 -10 23
-5 3 -10 3 -10 -2z"/>
<path d="M9216 7315 c3 -6 11 -12 18 -12 8 0 12 6 10 12 -3 6 -11 12 -18 12
-8 0 -12 -6 -10 -12z"/>
<path d="M9346 7097 c3 -10 9 -15 12 -12 3 3 0 11 -7 18 -10 9 -11 8 -5 -6z"/>
<path d="M9120 7316 c0 -14 5 -26 10 -26 6 0 10 9 10 19 0 11 -4 23 -10 26 -6
4 -10 -5 -10 -19z"/>
<path d="M9621 4701 c-7 -5 -12 -14 -10 -20 3 -6 9 -7 18 -2 7 5 12 14 10 20
-3 6 -9 7 -18 2z"/>
<path d="M9581 4533 c-1 -25 2 -31 14 -27 16 7 21 24 6 24 -5 0 -12 8 -14 18
-3 9 -5 3 -6 -15z"/>
<path d="M2480 2255 c0 -2 10 -10 23 -16 20 -11 21 -11 8 4 -13 16 -31 23 -31
12z"/>
<path d="M8586 2282 c15 -13 85 -34 91 -28 3 3 -10 13 -30 21 -39 16 -78 20
-61 7z"/>
<path d="M3135 1740 c3 -5 11 -10 16 -10 6 0 7 5 4 10 -3 6 -11 10 -16 10 -6
0 -7 -4 -4 -10z"/>
</g>
</svg>
